<?xml version="1.0" encoding="UTF-8"?>
<svg width="700pt" height="700pt" version="1.1" viewBox="0 0 700 700" xmlns="http://www.w3.org/2000/svg" xmlns:xlink="http://www.w3.org/1999/xlink">

 <g  fill="#3949ab">
  <path   d="m410.39 163.22-6.2305 1.918-5.1211 2.5664-3.6875 3.1641-1.8906 3.125-0.36328 3.2148 0.98828 3.0586 2.6992 3.1953 4.4492 3.043 5.5859 2.1211 6.6836 1.2656 7.1211 0.34766 6.9492-0.81641 6.3867-1.7031 5.2188-2.6719 3.543-2.918 1.9102-3.2578 0.44141-3.1719-1.1758-3.2695-2.7305-3.1367-4.2109-2.9102-5.8711-2.2539-6.5859-1.3711-7.1094-0.11719z"/>
  <path  d="m572.8 265.18c-0.089844 0.0625-0.14453 0.14453-0.24609 0.19531l-5.6328 2.8164c-0.066407 0.035156-0.13281 0.023438-0.20312 0.050781-0.089844 0.035157-0.14453 0.10156-0.24219 0.125l-6.8594 2.082c-0.11719 0.035157-0.24219 0.035157-0.35156 0.054688-0.066407 0.011719-0.11719 0.050781-0.18359 0.054688l-7.4688 0.73437c-0.09375 0.003907-0.17969 0.011719-0.26953 0.011719h-0.10156l-7.4688-0.24609c-0.027343 0-0.050781-0.015626-0.078125-0.015626-0.12891-0.011718-0.26172-0.011718-0.39062-0.042968l-7.1133-1.4688c-0.085938-0.015625-0.14062-0.074219-0.21875-0.09375-0.089844-0.027344-0.17188-0.015625-0.25781-0.050782l-6.125-2.4531c-0.10547-0.042969-0.17969-0.125-0.28125-0.17969-0.054688-0.035156-0.125-0.015625-0.18359-0.054688l-5.0195-3.1875c-0.14062-0.09375-0.23437-0.23437-0.35937-0.34766-0.035157-0.035156-0.078126-0.050781-0.11719-0.089844v3.4727l1.1406 3.2305 2.7227 3.2383 4.4414 3.0234 5.6016 2.1328 6.668 1.2656 7.0234 0.46484 7.0234-0.92969 6.4531-1.7266 5.0352-2.4062 3.5547-3.1406 2.0273-3.2812 0.40234-3.6328v-2.0938l-2.582 2.2734c-0.09375 0.097656-0.21875 0.14453-0.33984 0.21484z"/>
  <path d="m475.82 201.18-6.4531 1.7266-5.043 2.418-3.5508 3.1367-2.0273 3.2852-0.35547 3.0234 1.1055 3.1094 2.7305 3.4375 4.25 2.7695 5.7852 2.1484 6.6602 1.5 7.0938 0.23047 6.9961-0.93359 6.2656-1.5977 5.1641-2.5273 3.5508-3.1289 1.9414-3.3047 0.4375-3.0625-1.0742-3.0312-2.7227-3.2344-4.4414-3.0234-5.6289-2.1445-6.6523-1.4922-6.9766-0.22656z"/>
  <path d="m507.5 227.58c-0.10156 0.0625-0.16406 0.14453-0.26172 0.19531l-5.7578 2.8164c-0.085938 0.039062-0.16797 0.027344-0.24609 0.0625-0.10547 0.039062-0.18359 0.11328-0.29688 0.13281l-6.7383 1.7188c-0.066407 0.015625-0.13281 0.015625-0.20703 0.027344-0.039063 0.003906-0.074219 0.035156-0.11328 0.039062l-7.3477 0.98047c-0.125 0.015625-0.24609 0.023438-0.36328 0.023438h-0.003907-0.089843l-7.5977-0.24609c-0.023437 0-0.042968-0.015625-0.078124-0.015625-0.14063-0.011719-0.29688-0.015625-0.44141-0.050781l-7.1055-1.5898c-0.0625-0.015625-0.10547-0.054687-0.16406-0.074219-0.066406-0.023437-0.13281-0.011718-0.20312-0.039062l-6.2422-2.3281c-0.13281-0.050781-0.23438-0.15234-0.35156-0.22266-0.066406-0.035156-0.12891-0.015624-0.19141-0.054687l-4.8984-3.1797c-0.16797-0.11328-0.28125-0.26953-0.41016-0.40234-0.011719-0.011719-0.035156-0.023438-0.042969-0.035156v3.3828l1.1484 3.3555 2.7148 3.2188 4.3242 2.9102 5.7188 2.2461 6.6641 1.2695 7.1562 0.46094 6.9219-0.80469 6.2109-1.6953 5.2422-2.7812 3.5781-2.9453 1.9023-3.1484 0.50781-3.6328v-2.0703l-2.5742 2.2734c-0.10938 0.082031-0.24609 0.125-0.36328 0.20312z"/>
  <path d="m541.07 238.8-6.2344 1.6953-5.207 2.668-3.5703 3.0469-1.918 3.1562-0.44531 3.1914 1.0898 3.2734 2.6875 3.1836 4.4414 2.8242 5.6523 2.2578 6.6133 1.3594 7.0586 0.23438 7.0312-0.6875 6.3594-1.9258 5.0977-2.5547 3.5898-3.1641 2.0078-3.1641 0.35547-3.1367-1.082-3.0508-2.7383-3.1406-4.3164-3.1367-5.7266-2.0156-6.668-1.3789-7.1211-0.35156z"/>
  <path d="m331.52 221.32 4.25 2.7695 5.7852 2.1484 6.668 1.5 7.0859 0.23047 6.9883-0.93359 6.2656-1.5977 5.1836-2.5312 3.668-3.1484 1.9102-3.2461 0.35547-3.0586-1.0938-3.0898-2.625-3.2383-4.3984-2.9961-5.7539-2.1484-6.6602-1.4922-6.9844-0.22656-7.0664 0.92969-6.293 1.7109-5.0859 2.4297-3.668 3.1484-1.9922 3.2383-0.26563 3.0547 1.0156 3.1367z"/>
  <path d="m311.5 340.64c-0.085938 0.054687-0.12891 0.12891-0.21875 0.17188l-5.7578 2.9414c-0.078126 0.039063-0.16406 0.027344-0.23438 0.054688-0.10547 0.042968-0.19141 0.11719-0.30078 0.15234l-6.7383 1.8359c-0.089844 0.023437-0.17969 0.023437-0.26953 0.039063-0.050781 0.003906-0.089844 0.039062-0.14062 0.042968l-7.3477 0.85547c-0.11328 0.011719-0.21875 0.015625-0.32031 0.015625-0.042969 0-0.089844 0-0.12891-0.003906l-7.5938-0.37109c-0.023438 0-0.039063-0.015625-0.0625-0.015625-0.125-0.003906-0.24219-0.011719-0.36328-0.039063l-7.1055-1.4688c-0.050781-0.011718-0.089844-0.042968-0.14062-0.0625-0.078125-0.015624-0.15234-0.011718-0.23047-0.039062l-6.2422-2.2109c-0.19531-0.074218-0.34766-0.20312-0.51563-0.3125-0.0625-0.035156-0.13281-0.015624-0.19531-0.0625l-4.8984-3.5508c-0.089843-0.066406-0.14062-0.16406-0.22266-0.24219-0.035156-0.035156-0.078125-0.050782-0.11719-0.085938v3.6289l1.0547 3.4375 2.7812 3.1797 4.3516 2.8281 5.7305 2.3594 6.6094 1.2617 7.2344 0.23438 6.8477-0.6875 6.293-1.9492 5.2266-2.4414 3.5273-3.1133 1.9414-3.3047 0.50781-3.6523v-1.8711l-2.6133 2.2227c-0.125 0.125-0.24219 0.15625-0.34766 0.22266z"/>
  <path d="m266.17 259.02 4.3203 2.8125 5.7891 2.2734 6.5898 1.3555 7.2266 0.23438 6.8438-0.68359 6.2695-1.9297 5.2305-2.5586 3.5586-3.1445 1.9297-3.1797 0.44141-3.168-1.0664-3.0195-2.7383-3.1406-4.3203-3.1328-5.8359-2.0195-6.6797-1.3789-7.0039-0.35156-7.0742 0.81641-6.2227 1.6914-5.1172 2.6758-3.6602 3.0312-1.8047 3.1289-0.45312 3.2617 0.99609 3.2461z"/>
  <path d="m266.19 334.26 4.3398 3.1523 5.7148 2.0156 6.6719 1.3789 7.1172 0.35156 6.9609-0.81641 6.2344-1.6953 5.207-2.668 3.5781-3.0469 1.9141-3.1562 0.44141-3.1914-1.0898-3.2734-2.6992-3.2031-4.2969-2.793-5.9062-2.2695-6.6094-1.3594-7.0625-0.23438-7.0312 0.6875-6.2266 1.9219-5.1211 2.5664-3.6602 3.1406-1.8203 3.1523-0.45312 3.2305 0.97266 2.9844z"/>
  <path d="m200.78 296.64 4.3047 2.793 5.8906 2.3789 6.5977 1.25 7.1172 0.23438 6.8906-0.6875 6.2383-1.7031 5.2031-2.6523 3.7148-3.1953 1.8828-3 0.35156-3.1992-0.99609-3.1797-2.6797-3.1875-4.3125-2.793-5.8906-2.3867-6.5977-1.2422-7.1133-0.23438-6.8867 0.6875-6.2461 1.7031-5.2031 2.6562-3.7148 3.1914-1.8789 3-0.35547 3.1992 1 3.1797z"/>
  <path d="m246.09 302.91c-0.085938 0.054688-0.13281 0.13281-0.22266 0.17969l-5.75 2.9414c-0.078125 0.039062-0.16406 0.027344-0.23438 0.0625-0.10547 0.039062-0.19141 0.11719-0.30078 0.14453l-6.7383 1.8359c-0.11328 0.027343-0.22266 0.027343-0.33594 0.042969-0.042968 0.003906-0.078125 0.035156-0.11719 0.039062l-7.3477 0.73438c-0.09375 0.011719-0.18359 0.015625-0.27344 0.015625h-0.09375l-7.4766-0.24609c-0.023437 0-0.039062-0.011718-0.0625-0.015625-0.11719-0.003906-0.24219-0.011719-0.36328-0.035156l-7.1055-1.3438c-0.089843-0.015625-0.15625-0.074219-0.23437-0.10156-0.10156-0.027343-0.19531-0.015624-0.29297-0.054687l-6.3711-2.5742c-0.11719-0.050781-0.19531-0.14062-0.30078-0.20312-0.054688-0.027343-0.11719-0.015625-0.17188-0.050781l-4.8984-3.1797c-0.13281-0.089843-0.21094-0.21875-0.33203-0.32422v3.5547l1.0547 3.3438 2.6875 3.1797 4.2656 2.8828 5.8672 2.0312 6.7148 1.5117 6.9961 0.22266 6.957-0.8125 6.25-1.707 5.207-2.5547 3.6641-3.1406 1.9102-3.2422 0.40234-3.5352v-2.0391l-2.6094 2.2344c-0.12109 0.097657-0.23828 0.13672-0.34375 0.20312z"/>
  <path d="m311.5 265.18c-0.09375 0.0625-0.15625 0.14453-0.25781 0.19531l-5.7578 2.8164c-0.0625 0.027344-0.12891 0.015626-0.19141 0.042969-0.078125 0.035157-0.12891 0.09375-0.21094 0.11719l-6.7383 2.082c-0.12891 0.039062-0.25391 0.039062-0.37891 0.0625-0.0625 0.003906-0.10547 0.042969-0.16797 0.050781l-7.3477 0.73438c-0.09375 0.011719-0.18359 0.015625-0.27344 0.015625h-0.09375l-7.5938-0.24609c-0.027343 0-0.050781-0.015626-0.078125-0.015626-0.12891-0.011718-0.26172-0.011718-0.39844-0.042968l-7.1055-1.4688c-0.074219-0.015625-0.125-0.0625-0.19141-0.085938-0.089844-0.023437-0.17969-0.015625-0.26172-0.050781l-6.2422-2.4531c-0.125-0.050781-0.20703-0.14062-0.32422-0.20703-0.054688-0.035157-0.125-0.015625-0.17969-0.054688l-4.8984-3.1875c-0.125-0.085937-0.19531-0.20312-0.30078-0.29688-0.050781-0.042968-0.10547-0.066406-0.15234-0.11719v3.5l1.0352 3.1992 2.832 3.2422 4.3047 3.0117 5.7109 2.1289 6.6875 1.2695 7.1641 0.46484 6.8594-0.91797 6.3438-1.7305 5.1797-2.4258 3.5273-3.1133 1.9414-3.3047 0.50781-3.6523v-2.0703l-2.5742 2.2734c-0.12891 0.11719-0.25781 0.16016-0.375 0.23438z"/>
  <path d="m331.52 372.02 4.2852 3 5.7461 2.1445 6.668 1.4922 7.0859 0.23047 6.9609-0.92969 6.293-1.7148 5.207-2.4414 3.6445-3.125 1.9102-3.25 0.35547-3.0547-1.1055-3.125-2.6133-3.4297-4.3672-2.7578-5.7852-2.1523-6.6602-1.5-6.9844-0.23047-7.0977 0.92969-6.2617 1.5977-5.0625 2.5312-3.6914 3.1641-1.9922 3.2344-0.26563 3.0586 1 3.0898z"/>
  <path d="m376.8 302.91c-0.085937 0.054688-0.12891 0.13281-0.22266 0.17969l-5.7578 2.9414c-0.078125 0.039062-0.16406 0.027344-0.24219 0.0625-0.10547 0.039062-0.18359 0.11719-0.29688 0.14453l-6.7383 1.8359c-0.11719 0.027343-0.23047 0.027343-0.33984 0.042969-0.042969 0.003906-0.078125 0.035156-0.11719 0.039062l-7.3477 0.73438c-0.09375 0.011719-0.18359 0.015625-0.27344 0.015625h-0.09375l-7.5898-0.24609c-0.023438 0-0.039063-0.011718-0.0625-0.015625-0.11719-0.003906-0.24219-0.011719-0.36328-0.035156l-7.1133-1.3438c-0.10156-0.015625-0.17188-0.085937-0.26172-0.11328-0.089843-0.027344-0.19141-0.015625-0.28125-0.054688l-6.2422-2.5742c-0.11328-0.042969-0.17969-0.12891-0.28125-0.18359-0.054687-0.035156-0.125-0.015625-0.17969-0.054688l-4.8984-3.1797c-0.13281-0.089844-0.21094-0.21875-0.33203-0.32422v3.5547l1.0547 3.3438 2.6875 3.1797 4.2734 2.8906 5.75 2.0273 6.6992 1.5117 7.1133 0.22266 6.957-0.8125 6.2539-1.707 5.2148-2.5547 3.6562-3.1406 1.9141-3.2422 0.40234-3.5352v-2.0391l-2.6094 2.2344c-0.10938 0.089844-0.22266 0.12891-0.33203 0.19531z"/>
  <path d="m442.19 189.73c-0.078125 0.050781-0.11719 0.11719-0.20312 0.16406l-5.7578 2.9414c-0.078125 0.039062-0.15625 0.027344-0.23438 0.054687-0.11328 0.050781-0.19531 0.125-0.3125 0.15625l-6.8594 1.8359c-0.09375 0.023437-0.18359 0.023437-0.27344 0.035156-0.042969 0.011719-0.085937 0.039063-0.12891 0.042969l-7.3477 0.85547c-0.11328 0.011719-0.21094 0.015626-0.32031 0.015626h-0.007812c-0.042969 0-0.089844 0-0.12891-0.003907l-7.5898-0.36328c-0.023438 0-0.035156-0.011719-0.050782-0.011719-0.11719-0.011719-0.22266-0.011719-0.34766-0.035156l-7.1016-1.3477c-0.078125-0.015625-0.12891-0.0625-0.20703-0.085938-0.089843-0.023437-0.17187-0.015625-0.26172-0.050781l-6.125-2.3242c-0.15234-0.054687-0.25781-0.16406-0.39062-0.24609-0.0625-0.035157-0.13281-0.015626-0.19531-0.0625l-5.0234-3.4336c-0.11719-0.078125-0.17188-0.19141-0.27344-0.28125v3.4375l1.0547 3.4453 2.6602 3.1523 4.4805 2.832 5.6289 2.3672 6.5859 1.25 7.2344 0.23438 6.8555-0.6875 6.4102-1.9414 5.2188-2.4453 3.5352-3.1211 1.9414-3.3047 0.50391-3.4219v-2.0156l-2.6445 2.1797c-0.11719 0.085938-0.22656 0.12109-0.32422 0.18359z"/>
  <path d="m376.74 378.53c-0.09375 0.0625-0.15234 0.14062-0.25781 0.19141l-5.7578 2.6953c-0.074218 0.035157-0.14453 0.023438-0.21875 0.050782-0.089844 0.035156-0.14453 0.09375-0.23047 0.11719l-6.7383 1.8359c-0.085937 0.023437-0.15625 0.015625-0.24219 0.035156-0.042969 0.003906-0.085938 0.039063-0.12891 0.042969l-7.3477 0.98047c-0.11719 0.015626-0.24219 0.023438-0.35938 0.023438h-0.09375l-7.5898-0.24609c-0.027344 0-0.050782-0.015625-0.078126-0.015625-0.14453-0.011719-0.29687-0.015625-0.44922-0.050781l-7.1133-1.5898c-0.0625-0.011718-0.10547-0.054687-0.16406-0.074218-0.066406-0.023438-0.13281-0.011719-0.20312-0.039063l-6.2422-2.3281c-0.16797-0.066406-0.29297-0.18359-0.44141-0.27344-0.054687-0.039062-0.125-0.023437-0.18359-0.0625l-4.8984-3.4258c-0.10547-0.074219-0.15625-0.17969-0.24609-0.26172v3.5508l1.0547 3.3438 2.6758 3.1641 4.3398 2.8242 5.7305 2.3594 6.6133 1.2617 7.2422 0.23047 6.8984-0.57813 6.1953-1.6914 5.2461-2.7891 3.6914-2.9531 1.8867-3.2031 0.40234-3.5234v-2.043l-2.6094 2.2344c-0.11719 0.082032-0.25391 0.12891-0.38281 0.20703z"/>
  <path d="m376.77 227.59c-0.089843 0.054687-0.14453 0.13281-0.24219 0.18359l-5.7578 2.8164c-0.085937 0.039062-0.16406 0.027344-0.25391 0.0625-0.10156 0.039062-0.17969 0.11328-0.28516 0.13281l-6.7383 1.7188c-0.078126 0.015625-0.14063 0.015625-0.20703 0.027344-0.042968 0.003906-0.078125 0.035156-0.11719 0.039062l-7.3477 0.98047c-0.11719 0.015625-0.24219 0.023438-0.35937 0.023438h-0.09375l-7.5898-0.24609c-0.027344 0-0.050782-0.015625-0.078125-0.015625-0.14453-0.011719-0.29688-0.015625-0.44922-0.050781l-7.1133-1.5898c-0.0625-0.015625-0.10547-0.054687-0.16406-0.074219-0.066406-0.023437-0.13281-0.011718-0.20312-0.039062l-6.2422-2.3281c-0.13281-0.050781-0.23438-0.15234-0.35938-0.22266-0.0625-0.035156-0.12891-0.015624-0.19141-0.054687l-4.8984-3.1797c-0.13281-0.089844-0.21094-0.21875-0.33203-0.32422v3.3086l1.0469 3.3359 2.6953 3.1914 4.3242 2.9102 5.7227 2.2461 6.668 1.2695 7.1562 0.46094 6.9102-0.80469 6.2148-1.6953 5.2578-2.793 3.707-2.9688 1.8711-3.0781 0.40234-3.6523v-2.0273l-2.6094 2.2344c-0.097656 0.089843-0.22656 0.12891-0.34375 0.20312z"/>
  <path d="m331.47 159.93 4.3438 2.9219 5.7617 2.2617 6.5781 1.3594 7.2188 0.11719 6.8828-0.57812 6.2383-1.9336 5.2461-2.5664 3.6797-3.1523 1.8984-3.1289 0.40234-3.6523v-1.875l-2.6836 2.1445c-0.050781 0.039063-0.11328 0.023438-0.16406 0.054688-0.11328 0.085937-0.18359 0.18359-0.3125 0.25391l-5.7578 2.9414c-0.066406 0.035156-0.14062 0.023438-0.21875 0.054688-0.09375 0.039062-0.16797 0.11328-0.27344 0.14062l-6.7383 1.9609c-0.10156 0.027344-0.19531 0.027344-0.30078 0.042969-0.054687 0.011719-0.10156 0.042969-0.15625 0.050781l-7.3477 0.85547c-0.11328 0.011719-0.21094 0.015625-0.32031 0.015625-0.0625 0-0.11719 0-0.17969-0.003906l-7.5898-0.49219c-0.023437 0-0.042969-0.015625-0.066406-0.015625-0.089844-0.011719-0.17969-0.011719-0.26953-0.027343l-7.1133-1.3438c-0.10156-0.015626-0.17187-0.085938-0.26172-0.11328s-0.19141-0.015625-0.28125-0.054687l-6.2422-2.5703c-0.11328-0.042968-0.17969-0.12891-0.28125-0.18359-0.054687-0.035156-0.125-0.015624-0.17969-0.054687l-4.8984-3.1875c-0.13281-0.089844-0.21094-0.21875-0.33203-0.32422v3.5742l1.0469 3.4258z"/>
  <path d="m266.2 183.47 4.3281 3.0352 5.6953 2.1172 6.6914 1.2695 7.125 0.34766 6.9609-0.81641 6.2344-1.7031 5.2344-2.6719 3.543-2.9219 1.9219-3.2539 0.44141-3.2109-1.0859-3.2539-2.6914-3.0977-4.3398-2.9219-5.875-2.2578-6.5977-1.3711-7.1016-0.11719-7.0039 0.57812-6.2266 1.918-5.1211 2.5664-3.668 3.1484-1.8125 3.1406-0.45312 3.2383 0.98047 3.0156z"/>
  <path d="m352.12 119.31 3.6172 0.11719-1.9922-1.1758-1.8555 1.082c0.011719 0 0.023437 0.003906 0.039062 0.003906 0.0625 0.007812 0.125-0.027344 0.19141-0.027344z"/>
  <path d="m331.48 145.72 4.3359 2.8164 5.7266 2.3633 6.6641 1.2578 7.1562 0.46484 6.8906-0.80469 6.2539-1.8203 5.2578-2.6836 3.668-2.9375 1.8867-3.2031 0.35547-3.0859-1.1055-3.332-2.582-3.1719-4.4492-2.8203-5.7305-2.3594-6.6094-1.2461-7.0781-0.23828-7.0312 0.69531-6.2383 1.9219-5.1367 2.457-3.668 3.1406-1.9922 3.2422-0.26563 2.9492 1.0078 3.2109z"/>
  <path d="m266.17 197.64 4.3516 2.8281 5.7305 2.3633 6.6094 1.2539 7.2344 0.23438 6.8555-0.6875 6.2734-1.9375 5.2422-2.4531 3.5234-3.1133 1.9492-3.3086 0.50391-3.4219v-2.0234l-2.6484 2.1836c-0.09375 0.078125-0.20312 0.11328-0.30078 0.16797-0.078125 0.050781-0.125 0.11719-0.20703 0.16406l-5.7578 2.9414c-0.078125 0.039062-0.16406 0.027343-0.23438 0.0625-0.10547 0.039062-0.19141 0.11719-0.30078 0.14453l-6.7383 1.8359c-0.089843 0.023438-0.17969 0.023438-0.26953 0.039063-0.050781 0.003906-0.089843 0.039062-0.14062 0.042969l-7.3477 0.85547c-0.11328 0.011719-0.21875 0.015625-0.32031 0.015625-0.042969 0-0.089844 0-0.12891-0.003906l-7.5938-0.36328c-0.015625 0-0.027343-0.011719-0.042969-0.011719-0.11719-0.011719-0.23047-0.011719-0.33984-0.035156l-7.1055-1.3477c-0.074219-0.015624-0.125-0.0625-0.19531-0.085937-0.089844-0.023437-0.17188-0.011719-0.25781-0.042969l-6.2773-2.3164c-0.16797-0.0625-0.29297-0.17969-0.4375-0.27344-0.0625-0.035156-0.13281-0.015624-0.19531-0.0625l-4.8984-3.4336c-0.10547-0.078125-0.16406-0.18359-0.25781-0.27344-0.035157-0.035156-0.085938-0.050781-0.11719-0.085937v3.5273l1.0547 3.4336z"/>
  <path d="m135.48 259.04 4.2969 2.793 5.9141 2.2695 6.6016 1.3594 7.0625 0.23438 7.0312-0.6875 6.2266-1.9219 5.125-2.5625 3.6641-3.1445 1.8203-3.1562 0.44531-3.2266-0.96875-2.9844-2.8203-3.125-4.3477-3.1523-5.7109-2.0156-6.6758-1.3789-7.1172-0.35156-6.957 0.81641-6.2383 1.6953-5.207 2.668-3.5781 3.0469-1.9141 3.1562-0.44141 3.1914 1.0898 3.2734z"/>
  <path d="m135.52 273.04 4.2852 2.9961 5.8281 2.1328 6.7031 1.2695 7.0156 0.46484 7.0391-0.92969 6.293-1.7188 5.0664-2.4258 3.6289-3.1094 1.832-3.2812 0.50781-3.6797v-2.0039l-2.6094 2.2344c-0.10547 0.089844-0.23047 0.125-0.33984 0.19531-0.085937 0.054687-0.14062 0.13281-0.23047 0.17969l-5.6328 2.8164c-0.0625 0.035156-0.13281 0.023437-0.20312 0.050781-0.078125 0.035156-0.14062 0.09375-0.22266 0.11719l-6.7383 2.082c-0.11719 0.039062-0.23438 0.035156-0.35938 0.054687-0.074218 0.011719-0.125 0.054687-0.19531 0.0625l-7.4766 0.73438c-0.089844 0.003906-0.17969 0.011719-0.26953 0.011719h-0.09375l-7.4688-0.24609c-0.027344 0-0.050781-0.015625-0.078125-0.015625-0.12891-0.011719-0.26172-0.011719-0.39844-0.042969l-7.0898-1.4609c-0.066406-0.015625-0.11719-0.0625-0.18359-0.078125-0.089844-0.027344-0.17188-0.015625-0.25781-0.050781l-6.3711-2.4531c-0.12891-0.050781-0.21875-0.14453-0.33594-0.21094-0.054687-0.035156-0.12891-0.015625-0.18359-0.054687l-4.8984-3.1875c-0.13281-0.089844-0.22266-0.22266-0.33594-0.33203-0.039063-0.039062-0.085938-0.054687-0.11719-0.09375v3.4727l1.1406 3.2305z"/>
  <path d="m200.8 221.32 4.2461 2.7617 5.9023 2.1562 6.6797 1.5 6.9727 0.23047 6.9883-0.93359 6.2656-1.5977 5.1797-2.5312 3.6641-3.1484 1.9141-3.2461 0.35156-3.0977-0.98438-3.0586-2.7305-3.2305-4.2812-2.9961-5.8633-2.1445-6.6758-1.4961-6.9766-0.22656-6.9531 0.92969-6.2891 1.7109-5.2148 2.4414-3.6406 3.125-1.9102 3.25-0.35547 3.0898 1 3.1016z"/>
  <path d="m95.121 292.73 255.82 147.45v-21.719l-255.82-147.69z"/>
  <path d="m200.78 235.29 4.3164 2.9102 5.8398 2.2461 6.6758 1.2695 7.043 0.46094 6.9141-0.80469 6.2148-1.6953 5.2422-2.7891 3.707-2.9688 1.8711-3.0781 0.41016-3.6523v-2.0273l-2.6094 2.2344c-0.10547 0.09375-0.23438 0.12891-0.34766 0.20312-0.089844 0.054688-0.14453 0.13281-0.24219 0.18359l-5.75 2.8164c-0.085937 0.039062-0.16797 0.027344-0.24609 0.0625-0.10156 0.039062-0.18359 0.11328-0.29297 0.13281l-6.7383 1.7188c-0.074218 0.015626-0.14062 0.015626-0.20703 0.027344-0.039062 0.003906-0.074219 0.035156-0.11719 0.039063l-7.3438 0.97266c-0.125 0.015625-0.24219 0.023437-0.36328 0.023437h-0.09375l-7.4766-0.24609c-0.027344 0-0.050781-0.015625-0.078125-0.015625-0.14453-0.011719-0.29297-0.015625-0.44141-0.050782l-7.1055-1.5898c-0.054688-0.011719-0.10156-0.054688-0.15625-0.074219-0.066406-0.015625-0.12891-0.011719-0.19531-0.035156l-6.3711-2.3281c-0.14062-0.054688-0.24219-0.15234-0.37109-0.23047-0.0625-0.035156-0.13281-0.015625-0.19531-0.054688l-4.8984-3.1797c-0.13281-0.089844-0.21094-0.21875-0.33203-0.32422v3.3086l1.0469 3.3359z"/>
  <path d="m331.48 296.64 4.3359 2.8086 5.7344 2.3633 6.6055 1.25 7.2305 0.23438 6.8867-0.6875 6.25-1.7031 5.2031-2.6523 3.7148-3.1953 1.8789-3 0.35547-3.1602-1.1055-3.2188-2.582-3.1797-4.4492-2.8242-5.7305-2.3555-6.6094-1.25-7.0781-0.23438-7.0703 0.69531-6.207 1.6914-5.0898 2.6523-3.7422 3.2109-1.9648 2.9961-0.25781 3.1445 1.0078 3.2266z"/>
  <path d="m396.78 334.27 4.4375 3.1367 5.6172 2.0195 6.668 1.3789 7.1172 0.35156 6.9492-0.81641 6.3867-1.7031 5.1875-2.6523 3.5742-3.0547 1.9102-3.1562 0.44141-3.1523-1.1797-3.2891-2.7344-3.2305-4.1953-2.8008-5.8789-2.2578-6.5977-1.3594-7.0703-0.23438-7.0273 0.6875-6.2305 1.9219-5.1211 2.5664-3.6875 3.1641-1.8906 3.1211-0.36328 3.2109 0.98438 3.0391z"/>
  <path d="m442.2 265.18c-0.10156 0.0625-0.15625 0.14453-0.25781 0.19531l-5.7578 2.8164c-0.066406 0.035157-0.12891 0.023438-0.19531 0.042969-0.078126 0.035157-0.13281 0.09375-0.21875 0.11719l-6.8594 2.082c-0.12891 0.039062-0.25391 0.039062-0.37891 0.054688-0.054687 0.011718-0.10156 0.042968-0.15234 0.050781l-7.3477 0.73438c-0.09375 0.011718-0.18359 0.015625-0.27344 0.015625h-0.10156l-7.5898-0.24609c-0.035156 0-0.054687-0.015625-0.078124-0.015625-0.12891-0.011719-0.26953-0.011719-0.40234-0.042969l-7.1016-1.4688c-0.085937-0.015625-0.14062-0.074219-0.21875-0.09375-0.089843-0.023437-0.17188-0.015625-0.25781-0.050781l-6.125-2.4531c-0.10547-0.042969-0.17969-0.125-0.28125-0.17969-0.054688-0.035157-0.125-0.015626-0.18359-0.054688l-5.0195-3.1875c-0.14453-0.09375-0.23438-0.23047-0.35156-0.33984v3.4141l1.043 3.2148 2.7031 3.207 4.4297 3.0234 5.6055 2.1328 6.6758 1.2656 7.1641 0.46484 6.8477-0.91797 6.4922-1.7422 5.1562-2.4062 3.5352-3.125 1.9375-3.2969 0.50781-3.6523v-2.0469l-2.5703 2.2695c-0.12109 0.10156-0.25781 0.14453-0.375 0.21875z"/>
  <path d="m462.19 296.64 4.3398 2.8086 5.7227 2.3633 6.6133 1.25 7.2305 0.23438 6.8867-0.6875 6.2461-1.7031 5.1953-2.6484 3.5938-3.1758 1.918-3.0625 0.43359-3.1523-1.0898-3.1602-2.6875-3.2031-4.4414-2.8086-5.6562-2.3828-6.5898-1.2422-7.0742-0.23438-7.0664 0.69531-6.3516 1.6992-5.0547 2.6406-3.6289 3.1953-1.9883 3.0469-0.35547 3.1211 1.0977 3.1914z"/>
  <path d="m396.77 259.02 4.4453 2.8242 5.6445 2.2578 6.6055 1.3594 7.2227 0.23438 6.8477-0.68359 6.4023-1.9375 5.207-2.5508 3.5664-3.1484 1.9219-3.1758 0.44141-3.1289-1.1602-3.0312-2.7812-3.1875-4.1875-3.1172-5.8203-2.0156-6.6797-1.3789-7.0117-0.35156-7.0664 0.81641-6.2227 1.6914-5.1172 2.6758-3.6875 3.0547-1.8789 3.1055-0.36328 3.2383 1.0078 3.2852z"/>
  <path d="m442.2 340.65c-0.078125 0.050781-0.12891 0.125-0.21094 0.16797l-5.7578 2.9414c-0.078125 0.039063-0.15625 0.027344-0.23438 0.054688-0.11328 0.050781-0.19531 0.125-0.3125 0.15625l-6.8594 1.8359c-0.09375 0.023437-0.18359 0.023437-0.27344 0.035156-0.042969 0.011718-0.085938 0.039062-0.12891 0.042968l-7.3477 0.85547c-0.11328 0.011719-0.21094 0.015625-0.32031 0.015625h-0.007812c-0.042969 0-0.089844 0-0.12891-0.003906l-7.5938-0.37109c-0.023438 0-0.039063-0.015625-0.0625-0.015625-0.125-0.003906-0.24609-0.011719-0.37109-0.039062l-7.1016-1.4688c-0.054688-0.011719-0.10156-0.050781-0.15234-0.066407-0.078125-0.015624-0.15234-0.011718-0.23047-0.039062l-6.125-2.2109c-0.18359-0.066406-0.32031-0.19141-0.48047-0.29297-0.054687-0.035156-0.12891-0.015625-0.18359-0.0625l-5.0273-3.5508c-0.10156-0.074218-0.14453-0.17187-0.23438-0.25391v3.543l1.0547 3.4648 2.6602 3.1484 4.4844 2.8398 5.6172 2.3594 6.5898 1.2539 7.2344 0.23438 6.8477-0.6875 6.4219-1.9531 5.207-2.4297 3.5352-3.125 1.9375-3.2969 0.50781-3.6523v-1.8711l-2.6094 2.2227c-0.11328 0.11328-0.23828 0.14453-0.34375 0.21875z"/>
  <path d="m507.52 302.9c-0.089844 0.054687-0.14063 0.14062-0.24219 0.19141l-5.7578 2.9414c-0.078126 0.039062-0.15625 0.027344-0.23438 0.0625-0.11328 0.039062-0.19141 0.11719-0.30859 0.14453l-6.7383 1.8359c-0.11328 0.027343-0.21875 0.027343-0.33594 0.042969-0.042969 0.003906-0.078125 0.035156-0.11719 0.039062l-7.3477 0.73438c-0.09375 0.011719-0.17969 0.015625-0.27344 0.015625h-0.003907-0.089843l-7.5977-0.24609c-0.023437 0-0.035156-0.011718-0.054687-0.015625-0.125-0.003906-0.25391-0.011719-0.37109-0.035156l-7.1133-1.3438c-0.10156-0.015625-0.16797-0.085937-0.26172-0.11328s-0.18359-0.015625-0.28125-0.054688l-6.2422-2.5742c-0.11328-0.042969-0.17969-0.12891-0.28125-0.18359-0.054688-0.035156-0.125-0.015625-0.17969-0.054688l-4.8984-3.1797c-0.13281-0.089844-0.22266-0.22266-0.33594-0.33203-0.042969-0.039063-0.089843-0.054688-0.11719-0.09375v3.6133l1.1484 3.3594 2.7148 3.207 4.2734 2.8906 5.75 2.0273 6.6992 1.5117 7.1172 0.22266 6.957-0.8125 6.25-1.707 5.1953-2.543 3.543-3.1289 1.9414-3.2969 0.50781-3.5508v-2.0547l-2.5742 2.2734c-0.10547 0.089844-0.23438 0.12891-0.33984 0.20703z"/>
  <path  d="m356.54 440.18 255.69-147.45v-21.949l-255.69 147.68z"/>
  <path d="m581.07 249.52 0.10156 0.28125c0.011719 0.023437 0.003906 0.050781 0.011719 0.074218 0.054687 0.14453 0.050781 0.3125 0.078124 0.46875 0.015626 0.13281 0.078126 0.25391 0.078126 0.39062v14.211c0 0.054687-0.027344 0.10156-0.035157 0.15234 0 0.054688 0.023438 0.10547 0.015625 0.15625l-0.49219 4.4062c-0.003907 0.023438-0.015625 0.039063-0.015625 0.0625-0.023438 0.12891-0.085938 0.25391-0.11719 0.37891-0.066406 0.21875-0.11719 0.4375-0.23047 0.62891-0.015626 0.027344-0.015626 0.0625-0.035157 0.089844l-2.5703 4.168c-0.054688 0.085937-0.14062 0.11719-0.20312 0.19141-0.11328 0.14453-0.19141 0.3125-0.33594 0.4375l-4.168 3.6719c-0.11719 0.10547-0.25391 0.15234-0.37891 0.23047-0.09375 0.0625-0.15625 0.14453-0.26172 0.19531l-5.6328 2.6875c-0.066406 0.035156-0.14062 0.023438-0.21875 0.050781-0.089844 0.039063-0.16406 0.10547-0.26172 0.12891l-6.8594 1.8359c-0.085937 0.023437-0.16406 0.015625-0.24219 0.035156-0.042969 0.003907-0.078125 0.035157-0.11719 0.039063l-7.4688 0.98438c-0.11719 0.015625-0.24219 0.023437-0.35938 0.023437h-0.003906-0.003906c-0.0625 0-0.11719 0-0.17188-0.003906l-7.4688-0.49219c-0.027344 0-0.042969-0.015624-0.074219-0.015624-0.089844-0.011719-0.17969-0.011719-0.26953-0.027344l-7.1133-1.3438c-0.078126-0.015625-0.12891-0.0625-0.19531-0.085938-0.09375-0.023437-0.18359-0.015625-0.28125-0.050781l-6.125-2.3281c-0.14453-0.054688-0.25781-0.16797-0.38672-0.24609-0.066406-0.035156-0.13281-0.015625-0.19531-0.0625l-5.0195-3.4258c-0.125-0.089844-0.20312-0.21094-0.30859-0.32031-0.085938-0.078124-0.18359-0.11328-0.25391-0.19141l-3.3164-3.9219c-0.19531-0.23438-0.32031-0.50391-0.42578-0.77734-0.011719-0.039063-0.054687-0.054688-0.074219-0.10156l-1.4727-4.168c-0.054688-0.15625-0.042969-0.32031-0.066406-0.47656-0.027344-0.15234-0.09375-0.29297-0.09375-0.45312v-14.207c0-0.039063 0.015625-0.074219 0.023437-0.11328 0.003907-0.066406 0.003907-0.125 0.011719-0.19141 0.003906-0.027344-0.003906-0.054688-0.003906-0.085938l0.60938-4.4062v0.015626c0.027343-0.17969 0.11719-0.34766 0.18359-0.51953 0.0625-0.17969 0.09375-0.37109 0.18359-0.53125 0.003906-0.003906 0-0.011718 0.003906-0.011718l2.4531-4.0469c0.078124-0.125 0.19531-0.20312 0.29297-0.3125 0.10156-0.11719 0.16406-0.26953 0.29297-0.37109l4.168-3.5508c0.089844-0.078126 0.19141-0.10156 0.29297-0.15625 0.089844-0.0625 0.15234-0.15234 0.25391-0.20313l5.7578-2.9414c0.09375-0.042968 0.18359-0.042968 0.28125-0.078125 0.09375-0.039062 0.16406-0.10547 0.26172-0.12891l6.7383-1.8359c0.066407-0.015626 0.12891 0 0.19531-0.011719 0.078125-0.015625 0.12891-0.0625 0.20703-0.074219l7.3477-0.85547c0.066407-0.003906 0.125 0.023438 0.18359 0.023438 0.10156 0 0.17969-0.042969 0.28125-0.035157l3.6016 0.17188-35.844-20.613 0.089843 0.24609c0.011719 0.035156 0 0.074219 0.011719 0.10547 0.050781 0.15625 0.054688 0.32422 0.078125 0.48828 0.015625 0.11719 0.074219 0.22266 0.074219 0.34766v14.211c0 0.066406-0.035156 0.125-0.039063 0.19141-0.003906 0.066406 0.023438 0.125 0.011719 0.19141l-0.60938 4.4062v0.003906c-0.011719 0.085938-0.0625 0.15234-0.078125 0.23438-0.066406 0.27344-0.14453 0.54297-0.28516 0.77734-0.011719 0.015625-0.011719 0.035157-0.015625 0.050781l-2.4531 4.043c-0.042969 0.074219-0.11719 0.10156-0.16797 0.16406-0.13281 0.18359-0.25781 0.38672-0.44922 0.54688l-4.168 3.4336c-0.085938 0.074219-0.18359 0.10156-0.27344 0.15625-0.074219 0.042969-0.11719 0.11719-0.18359 0.15234l-5.7617 3.0625c-0.078126 0.042969-0.16406 0.027344-0.24219 0.0625-0.11719 0.050782-0.20703 0.13281-0.33984 0.16797l-6.7383 1.8359c-0.089844 0.023438-0.17969 0.023438-0.27344 0.039063-0.042969 0.003906-0.089844 0.039063-0.13281 0.042969l-7.3477 0.85156c-0.10547 0.011719-0.21094 0.015625-0.32031 0.015625h-0.003906c-0.066406 0-0.11719 0-0.17188-0.003906l-7.5977-0.48828c-0.023438 0-0.039063-0.015625-0.066407-0.015625-0.089843-0.011719-0.18359-0.011719-0.27344-0.027344l-7.1133-1.3477c-0.078125-0.015625-0.14062-0.066407-0.21875-0.089844-0.09375-0.027344-0.18359-0.015625-0.28125-0.054687l-6.2422-2.4531c-0.13281-0.054687-0.22266-0.15234-0.34766-0.22266-0.066406-0.039062-0.13281-0.023437-0.19531-0.0625l-4.8984-3.3047c-0.12891-0.089844-0.20703-0.21875-0.32031-0.32422-0.085938-0.078125-0.18359-0.11328-0.26172-0.19531l-3.3047-3.9219c-0.20703-0.24609-0.33984-0.52734-0.44922-0.8125-0.011718-0.039062-0.050781-0.054687-0.066406-0.089843l-1.4688-4.2891c-0.054687-0.15234-0.039062-0.30859-0.066406-0.46484-0.023438-0.14453-0.089844-0.28516-0.089844-0.44141v-14.09c0-0.027343 0.015625-0.054687 0.015625-0.085937 0.003907-0.054687 0.003907-0.11328 0.003907-0.16406 0.003906-0.023437-0.003907-0.042968 0-0.074218l0.49219-4.2891c0-0.015625 0.011719-0.035156 0.011719-0.050781 0.027344-0.19141 0.11719-0.37109 0.17969-0.55859 0.0625-0.16406 0.09375-0.34766 0.17969-0.49219 0.011719-0.015625 0.011719-0.039063 0.023437-0.054688l2.5703-4.168c0.085937-0.12891 0.20703-0.21094 0.30859-0.32422 0.078126-0.10156 0.12891-0.21875 0.23047-0.30859l4.168-3.6719c0.10156-0.089844 0.21875-0.11719 0.32422-0.18359 0.11719-0.078125 0.19141-0.17969 0.32031-0.24219l5.6328-2.6953c0.085937-0.039062 0.16797-0.035156 0.24609-0.066406 0.089843-0.027344 0.15234-0.09375 0.24219-0.11719l6.8594-1.8359c0.066406-0.015625 0.11719 0 0.17969-0.011719 0.066406-0.011719 0.11719-0.050781 0.17969-0.0625l7.4688-0.98047c0.10547-0.011718 0.19531 0.023438 0.29688 0.023438 0.054688-0.011719 0.11328-0.039062 0.16406-0.042969l3.168 0.10547-35.516-20.559 0.089844 0.25391c0.015625 0.039063 0.011719 0.078126 0.023438 0.11719 0.042968 0.15234 0.054687 0.3125 0.078124 0.47656 0.015626 0.125 0.074219 0.23438 0.074219 0.35938v14.211c0 0.074219-0.039062 0.12891-0.039062 0.20312-0.011719 0.074219 0.023437 0.13281 0.011719 0.20703l-0.60938 4.1172v0.042969c-0.054687 0.35937-0.17969 0.6875-0.34766 0.98437-0.003906 0.003907-0.003906 0.015626-0.011718 0.023438l-2.4844 4.2031c-0.039062 0.074219-0.11719 0.10156-0.16406 0.16406-0.125 0.17969-0.22266 0.37109-0.39062 0.51953l-4.1602 3.6719c-0.11719 0.11328-0.26953 0.15625-0.39844 0.24219-0.10156 0.0625-0.16406 0.14453-0.26953 0.19531l-5.7578 2.6953c-0.0625 0.027344-0.125 0.015625-0.18359 0.042969-0.066406 0.023437-0.11719 0.078125-0.18359 0.10156l-6.8594 2.0781c-0.12891 0.039063-0.25391 0.039063-0.37891 0.054688-0.054688 0.011719-0.10156 0.042969-0.15234 0.050781l-7.3477 0.73828c-0.089844 0.011719-0.18359 0.015626-0.27344 0.015626h-0.10156l-7.5898-0.24609c-0.023437 0-0.042969-0.011719-0.066406-0.015625-0.11719-0.003907-0.24219-0.011719-0.37109-0.035157l-7.1016-1.3438c-0.10547-0.023437-0.17969-0.085937-0.27344-0.11328-0.10156-0.035156-0.19531-0.023437-0.29688-0.0625l-6.125-2.5742c-0.089844-0.039062-0.15234-0.11719-0.23438-0.16406-0.0625-0.027344-0.11719-0.015625-0.17188-0.050781l-5.0234-3.1797c-0.15234-0.10156-0.25391-0.24219-0.375-0.35938-0.085937-0.078125-0.19141-0.11719-0.26953-0.20312l-3.3047-3.9219c-0.25391-0.30078-0.42969-0.63281-0.53906-0.99219l-1.3438-4.4062c-0.042969-0.12891-0.023437-0.26172-0.042969-0.39062-0.023437-0.14062-0.085937-0.27344-0.085937-0.42188v-13.965c0-0.042969 0.023437-0.085937 0.027344-0.11719 0-0.054688-0.011719-0.10547-0.011719-0.15625 0.003906-0.011719 0-0.023438 0-0.035157l0.49219-4.4062c0-0.015625 0.011718-0.027343 0.011718-0.042969 0.027344-0.17187 0.11328-0.34766 0.16797-0.51953s0.10156-0.36328 0.19141-0.52734c0.011719-0.015626 0.011719-0.035157 0.015625-0.050782l2.4531-4.0469c0.078125-0.125 0.19531-0.20312 0.29297-0.3125 0.10156-0.11719 0.16406-0.26172 0.28516-0.36328l4.2891-3.6719c0.089843-0.078125 0.19531-0.10156 0.29688-0.16406 0.10156-0.0625 0.16406-0.15625 0.27344-0.21094l5.6328-2.8164c0.078125-0.039063 0.15234-0.035157 0.23047-0.0625 0.066407-0.035157 0.11719-0.089844 0.19531-0.11328l6.7383-2.082c0.10156-0.035156 0.20703-0.011718 0.30859-0.035156 0.10547-0.015625 0.18359-0.074219 0.29297-0.085938l7.4688-0.60937c0.054687-0.003907 0.10547 0.023437 0.15625 0.015624 0.042969-0.003906 0.078125-0.023437 0.11719-0.027343l3.4766 0.0625-35.801-20.578 0.12891 0.375v0.042968c0.050781 0.14063 0.042968 0.30078 0.066406 0.45313 0.015625 0.12891 0.078125 0.25391 0.078125 0.38672l0.003906 13.977c0 0.054687-0.027343 0.10156-0.035156 0.15234 0 0.054688 0.023437 0.10547 0.015625 0.15625l-0.49219 4.4062c-0.003906 0.015626-0.011718 0.027344-0.015624 0.042969-0.011719 0.11719-0.078126 0.23047-0.10547 0.34766-0.0625 0.24219-0.125 0.47656-0.24609 0.67578-0.011719 0.023437-0.011719 0.050781-0.023437 0.074219l-2.4531 4.0469c-0.042968 0.078126-0.12891 0.10547-0.17187 0.16797-0.12891 0.17188-0.23047 0.35938-0.39844 0.50781l-4.2891 3.6719c-0.10547 0.09375-0.23438 0.12891-0.34766 0.20312-0.089843 0.054687-0.14453 0.13281-0.24219 0.18359l-5.7578 2.8164c-0.066406 0.035156-0.12891 0.023437-0.19141 0.042968-0.078125 0.035157-0.12891 0.09375-0.21094 0.11719l-6.7383 2.082c-0.13281 0.042969-0.27344 0.042969-0.41406 0.066407-0.066406 0.003906-0.11719 0.042968-0.17188 0.050781l-7.3477 0.60938c-0.085937 0.003906-0.15625 0.011718-0.23437 0.011718h-0.042969l-7.5898-0.125c-0.015625 0-0.027344-0.011718-0.042969-0.011718-0.15625-0.003906-0.3125-0.011719-0.46875-0.050782l-7.1133-1.4727c-0.074219-0.015625-0.125-0.0625-0.19141-0.085937-0.089844-0.023438-0.17969-0.015625-0.26172-0.050781l-6.2422-2.4531c-0.13281-0.054687-0.23047-0.15234-0.34766-0.22266-0.0625-0.039062-0.13281-0.023437-0.19531-0.0625l-4.8984-3.3047c-0.11719-0.085938-0.19141-0.20312-0.29688-0.30078-0.078125-0.074219-0.17969-0.10547-0.25391-0.18359l-3.3086-3.8008c-0.26172-0.30078-0.44141-0.64453-0.55469-1.0078 0-0.003906-0.003906-0.011719-0.011719-0.015625l-1.3438-4.4062c-0.039063-0.12891-0.015625-0.26172-0.039063-0.39062-0.023437-0.14062-0.085937-0.27344-0.085937-0.42188v-14.211c0-0.042969 0.023437-0.085938 0.023437-0.11719 0-0.042969-0.015624-0.085938-0.011718-0.125v-0.023438-0.003906l0.25391-2.8672-35.633 20.551 7.3477 0.125c0.089844 0 0.15625 0.042969 0.24219 0.054688 0.09375 0.011718 0.18359-0.015626 0.28125 0.003906l7.1055 1.4727c0.078125 0.015625 0.12891 0.066406 0.20703 0.089844 0.078125 0.023437 0.15625 0.011718 0.23438 0.039062l6.3711 2.4531c0.10156 0.039063 0.16797 0.11719 0.26172 0.16797s0.20312 0.0625 0.29688 0.11719l4.8984 3.3047c0.11328 0.078125 0.17188 0.18359 0.26953 0.27344 0.089844 0.078126 0.20313 0.11719 0.28125 0.21094l3.2812 3.7734c0.003907 0.011718 0.015626 0.015624 0.023438 0.027343 0.003906 0.003907 0.003906 0.015625 0.011719 0.023438 0.23047 0.26953 0.41406 0.57812 0.53125 0.92969v0.003906c0 0.003907 0 0.011719 0.003906 0.015626l1.4609 4.3867c0.003907 0.027344 0 0.050782 0.003907 0.078125 0.042969 0.14062 0.042969 0.29688 0.0625 0.44922 0.015625 0.125 0.074219 0.23438 0.074219 0.35938v14.211c0 0.074219-0.035157 0.12891-0.039063 0.20313-0.003906 0.074218 0.023437 0.13281 0.011719 0.20703l-0.60547 4.1172-0.003906 0.042969c-0.050781 0.35938-0.17969 0.6875-0.34766 0.98438-0.003906 0.003906-0.003906 0.015625-0.003906 0.023438l-2.4766 4.1797c-0.042969 0.078125-0.125 0.10547-0.17969 0.17188-0.125 0.17188-0.21875 0.35938-0.38672 0.50781l-4.168 3.6719c-0.11719 0.10547-0.25781 0.15234-0.38672 0.23437-0.10156 0.0625-0.16797 0.15234-0.27344 0.20313l-5.7578 2.6953c-0.0625 0.027344-0.125 0.015625-0.18359 0.039062-0.0625 0.027344-0.11328 0.078126-0.17188 0.10156l-6.7383 2.0781c-0.125 0.039062-0.25391 0.039062-0.37891 0.0625-0.054688 0.003906-0.10547 0.042969-0.16797 0.050781l-7.3477 0.73828c-0.089844 0.011719-0.18359 0.015626-0.27344 0.015626h-0.09375l-7.5938-0.24609c-0.023437 0-0.039062-0.011719-0.0625-0.015625-0.125-0.003907-0.24609-0.011719-0.37109-0.035157l-7.1055-1.3438c-0.10156-0.015624-0.17188-0.085937-0.26172-0.11328-0.089844-0.027343-0.19141-0.015625-0.28125-0.054687l-6.2422-2.5742c-0.11328-0.042969-0.17969-0.12891-0.28125-0.18359-0.054687-0.035156-0.125-0.015625-0.17969-0.054687l-4.8984-3.1797c-0.125-0.085937-0.19531-0.20312-0.30078-0.29688-0.089844-0.085937-0.20312-0.11719-0.28125-0.20703l-3.4258-3.9219c-0.26172-0.30078-0.44141-0.64453-0.55469-1.0078 0-0.003906-0.011719-0.011718-0.011719-0.015624l-1.3477-4.4062c-0.039062-0.13281-0.015624-0.27344-0.039062-0.41016-0.023438-0.14062-0.085938-0.26172-0.085938-0.41016v-13.965c0-0.042969 0.023438-0.078125 0.023438-0.11719 0-0.066406 0-0.12891 0.003906-0.19531 0-0.023437-0.003906-0.042969-0.003906-0.066406l0.41406-2.9922-35.668 20.547 7.3711 0.24219c0.09375 0.003906 0.17187 0.050781 0.26953 0.066406 0.085937 0.003906 0.16797-0.015625 0.25391 0l7.1055 1.5898c0.066406 0.015625 0.11328 0.0625 0.17188 0.078125 0.054687 0.015625 0.11719 0.003906 0.17188 0.027344l6.3711 2.3281c0.125 0.042968 0.21094 0.13281 0.32422 0.19531 0.10547 0.0625 0.21875 0.074219 0.32031 0.14062l4.8984 3.4258c0.10156 0.074219 0.15234 0.17188 0.24219 0.25391 0.09375 0.089843 0.21094 0.13281 0.29688 0.23438l3.2891 3.8906v0.003906l0.015625 0.023437c0.14453 0.17188 0.22266 0.37891 0.32031 0.58203 0.0625 0.125 0.15625 0.23047 0.20312 0.36328l0.003906 0.015625c0 0.011719 0.003906 0.015625 0.003906 0.023438l1.332 4.1211v0.027344c0.042968 0.14062 0.035156 0.29688 0.054687 0.44141 0.015625 0.12891 0.078125 0.25391 0.078125 0.38672v14.211c0 0.054687-0.027344 0.10156-0.027344 0.15234s0.015625 0.10547 0.011719 0.15625l-0.49219 4.4062c0 0.015625-0.011719 0.027344-0.011719 0.050781-0.015625 0.11719-0.078125 0.23438-0.11328 0.35156-0.0625 0.23047-0.125 0.46094-0.24219 0.66016-0.011719 0.023438-0.011719 0.050781-0.023438 0.074219l-2.4531 4.043c-0.035157 0.0625-0.10547 0.085937-0.14063 0.13281-0.14453 0.21094-0.29297 0.42969-0.50391 0.59766l-4.2891 3.4336c-0.042969 0.039063-0.11328 0.023438-0.15625 0.054688-0.10156 0.074219-0.16797 0.16797-0.28125 0.23047l-5.75 3.0625c-0.078125 0.042968-0.16406 0.027343-0.24219 0.0625-0.11719 0.050781-0.21094 0.13281-0.33594 0.16797l-6.7383 1.8359c-0.089844 0.023437-0.18359 0.023437-0.27344 0.039062-0.050781 0.003906-0.089844 0.039063-0.14062 0.042969l-7.3477 0.85156c-0.10547 0.011718-0.21094 0.015624-0.32031 0.015624-0.0625 0-0.11719 0-0.17969-0.003906l-7.4766-0.48828c-0.023437 0-0.042968-0.015625-0.066406-0.015625-0.089844-0.011719-0.17969-0.011719-0.26953-0.027344l-7.1055-1.3477c-0.078125-0.015625-0.13281-0.066406-0.21094-0.089844-0.09375-0.023437-0.18359-0.015625-0.27344-0.050781l-6.3711-2.4531c-0.13281-0.054688-0.23438-0.15625-0.35938-0.23047-0.0625-0.035156-0.13281-0.015625-0.19531-0.0625l-4.8984-3.3047c-0.12891-0.089844-0.20703-0.21875-0.32031-0.32422-0.085938-0.078125-0.18359-0.11328-0.25781-0.19531l-3.3086-3.9219c-0.26172-0.26563-0.43359-0.59766-0.53906-0.9375v-0.011719l-1.3438-4.2773c-0.042969-0.13281-0.023437-0.27344-0.042969-0.41406-0.023437-0.14062-0.085937-0.27344-0.085937-0.42187v-14.09c0-0.042969 0.023437-0.078125 0.023437-0.11719 0-0.054687-0.003906-0.11328 0-0.16406 0-0.011719-0.003906-0.023438 0-0.035156l0.33984-2.9844-35.598 20.609 7.4297 0.35937c0.074219 0.003907 0.12891 0.042969 0.20312 0.050782 0.078125 0.011718 0.15234-0.011719 0.23047 0.003906l7.1055 1.4688c0.0625 0.011719 0.10547 0.054688 0.16406 0.074219 0.066406 0.015625 0.14062 0.003906 0.20703 0.027343l6.2422 2.2109c0.13281 0.050781 0.23047 0.14062 0.34766 0.20703 0.11719 0.066407 0.24609 0.085938 0.35938 0.16406l4.8984 3.5508c0.089844 0.0625 0.12891 0.15625 0.20703 0.22266 0.074219 0.066407 0.16406 0.10156 0.23047 0.16797l3.4258 3.8008c0.003906 0.003907 0.003906 0.015625 0.011719 0.023438 0.12891 0.14062 0.20312 0.33203 0.30078 0.50391 0.089844 0.15234 0.20703 0.29688 0.25781 0.46094 0 0.011719 0.011718 0.015626 0.011718 0.027344l1.3477 4.1602c0.003907 0.023438 0 0.042969 0.003907 0.074219 0.039062 0.13281 0.035156 0.28516 0.054687 0.42969 0.015625 0.125 0.074219 0.23438 0.074219 0.35938v14.211c0 0.074219-0.035156 0.125-0.039063 0.19141-0.003906 0.066406 0.015626 0.125 0.011719 0.19141l-0.59766 4.3242v0.015626l-0.011719 0.066406c-0.050781 0.35156-0.16406 0.68359-0.32422 0.97266v0.011719l-2.3281 4.168c-0.035156 0.0625-0.10547 0.085937-0.14062 0.14062-0.14063 0.21875-0.27344 0.44141-0.48047 0.61719l-4.2891 3.6719c-0.11719 0.10156-0.24609 0.14062-0.375 0.21875-0.085937 0.054687-0.14453 0.13281-0.24219 0.17969l-5.6328 2.6875c-0.074218 0.035157-0.15234 0.023438-0.22266 0.050782-0.089844 0.035156-0.15625 0.10156-0.24609 0.125l-6.7383 1.8359c-0.078125 0.023438-0.15625 0.015625-0.23438 0.035157-0.042969 0.003906-0.085938 0.039062-0.12891 0.042968l-7.4766 0.98438c-0.125 0.015625-0.24219 0.023438-0.35938 0.023438-0.0625 0-0.11719 0-0.17969-0.003907l-7.4688-0.49219c-0.023438 0-0.042969-0.015625-0.066407-0.015625-0.089843-0.011719-0.17969-0.011719-0.26953-0.027344l-7.1055-1.3438c-0.066406-0.011718-0.11719-0.054687-0.18359-0.078125-0.085938-0.023437-0.16797-0.011719-0.25391-0.042969l-6.3711-2.3281c-0.17188-0.066407-0.30078-0.18359-0.46094-0.28125-0.0625-0.039063-0.12891-0.023438-0.18359-0.0625l-4.8984-3.4258c-0.11719-0.085937-0.17969-0.19531-0.27344-0.29297-0.085937-0.078126-0.18359-0.11328-0.25781-0.19531l-3.3086-3.9219c-0.20312-0.23438-0.32031-0.50391-0.42578-0.77734-0.015625-0.039062-0.0625-0.054687-0.074219-0.10156l-1.4727-4.168c-0.054688-0.15625-0.039062-0.32031-0.066406-0.47656-0.027344-0.15234-0.09375-0.29297-0.09375-0.45312v-14.207c0-0.039062 0.015625-0.074218 0.023437-0.11328 0-0.066406 0-0.125 0.011719-0.19141 0-0.027344-0.003906-0.054688-0.003906-0.085938l0.39844-2.8789-28.52 16.375 255.81 147.68 255.7-147.69zm-326.45 53.156c0 0.054687-0.027344 0.10547-0.035156 0.15625-0.003907 0.050781 0.015624 0.10547 0.011718 0.15625l-0.49219 4.2891c0 0.011719-0.003907 0.015625-0.003907 0.023438-0.011718 0.11328-0.074218 0.21094-0.10156 0.32422-0.0625 0.24609-0.125 0.48828-0.24219 0.69922-0.011718 0.023437-0.011718 0.039063-0.023437 0.0625l-2.4531 4.1602c-0.039062 0.074219-0.11719 0.10156-0.16797 0.16406-0.12891 0.18359-0.24219 0.38672-0.42188 0.54297l-4.2891 3.6719c-0.10547 0.089843-0.23047 0.12891-0.34766 0.20312-0.089844 0.054688-0.14453 0.13281-0.24219 0.18359l-5.75 2.8242c-0.078125 0.039063-0.15625 0.027344-0.23438 0.054687-0.09375 0.039063-0.16406 0.10547-0.26172 0.12891l-6.7383 1.8359c-0.089844 0.023438-0.18359 0.023438-0.27344 0.039063-0.050782 0.003906-0.089844 0.039062-0.14063 0.042969l-7.3477 0.85156c-0.10547 0.011719-0.21094 0.015625-0.32031 0.015625h-0.09375l-7.4766-0.24219c-0.027343 0-0.050781-0.015626-0.078125-0.015626-0.14453-0.011718-0.29688-0.015624-0.44922-0.050781l-7.1055-1.5977c-0.050781-0.011719-0.085938-0.042969-0.13281-0.0625-0.054687-0.015625-0.11328-0.011719-0.16797-0.027344l-6.3711-2.207c-0.17188-0.0625-0.30078-0.17969-0.45312-0.26953-0.0625-0.035157-0.14062-0.015625-0.20312-0.0625l-4.8984-3.3086c-0.12891-0.089844-0.20703-0.21094-0.3125-0.32031-0.078125-0.078124-0.18359-0.11328-0.25781-0.19531l-3.3086-3.9141c-0.24609-0.29297-0.42188-0.61719-0.52734-0.96484l-0.003906-0.003906v-0.003907-0.003906l-1.3438-4.2773c-0.042969-0.13281-0.023438-0.27344-0.042969-0.41406-0.023437-0.14062-0.085937-0.27344-0.085937-0.42188v-14.211c0-0.050781 0.023437-0.089844 0.027344-0.12891 0-0.054688-0.011719-0.10547-0.003907-0.15625v-0.023438l0.49219-4.4062c0-0.023437 0.015625-0.042968 0.023437-0.066406 0.023438-0.17969 0.11328-0.34766 0.16797-0.52734 0.0625-0.17187 0.10156-0.35156 0.19141-0.50781 0.011719-0.023438 0.011719-0.050781 0.027344-0.074219l2.4531-3.9219c0.074219-0.11719 0.19141-0.19141 0.28125-0.29688 0.09375-0.11719 0.15625-0.25391 0.27344-0.34766l4.2891-3.6719c0.085938-0.074219 0.19141-0.09375 0.28125-0.15234 0.09375-0.066406 0.16406-0.15625 0.26172-0.21094l5.75-2.9414c0.089843-0.050781 0.19141-0.042968 0.28516-0.085937 0.089844-0.035156 0.15625-0.10156 0.25391-0.125l6.7383-1.8359c0.078126-0.023438 0.15625 0 0.23438-0.015626 0.078124-0.011718 0.14062-0.0625 0.21875-0.066406l7.3477-0.73438c0.078125-0.011719 0.14453 0.023438 0.22266 0.023438 0.050781-0.011719 0.10156-0.035157 0.15234-0.039063l7.4766 0.24609c0.078125 0 0.14062 0.042969 0.21875 0.054688 0.074219 0.003906 0.13281-0.015626 0.21094-0.003907l7.1055 1.3438c0.09375 0.015625 0.16406 0.078125 0.25391 0.10547 0.089843 0.027344 0.18359 0.015625 0.27344 0.050781l6.3711 2.5742c0.09375 0.039062 0.15234 0.11328 0.23438 0.15625 0.078125 0.039062 0.16406 0.042969 0.23438 0.09375l4.8984 3.1797c0.11719 0.078124 0.18359 0.19141 0.28516 0.28125 0.10547 0.09375 0.23438 0.15234 0.33203 0.26172l3.2969 3.9102s0.003906 0.003907 0.003906 0.003907v0.003906c0.21875 0.25781 0.35156 0.54688 0.46484 0.83984 0.015625 0.042969 0.054688 0.078125 0.066406 0.125v0.011719l1.3438 4.2773v0.015625c0.039063 0.13281 0.027344 0.28516 0.042969 0.42578 0.015625 0.13281 0.078125 0.25781 0.078125 0.39062l0.003906 14.109zm65.414 37.609c0 0.074219-0.035156 0.125-0.039062 0.19141-0.003906 0.066406 0.015625 0.125 0.011718 0.19141l-0.60937 4.3867v0.015625 0.003906c-0.050782 0.36328-0.17188 0.69922-0.34766 1.0039-0.003906 0.011719-0.003906 0.023438-0.011719 0.035157l-2.4531 4.168c-0.042969 0.078125-0.125 0.10547-0.17969 0.17188-0.125 0.17188-0.21875 0.35938-0.38672 0.50781l-4.168 3.6719c-0.11719 0.11328-0.26953 0.15625-0.40234 0.24219-0.09375 0.0625-0.16406 0.14453-0.26172 0.19531l-5.7578 2.6875c-0.054688 0.027343-0.11719 0.015625-0.17188 0.039062-0.066406 0.027344-0.11328 0.078125-0.17969 0.10156l-6.7383 2.082c-0.12891 0.039063-0.25391 0.039063-0.37891 0.0625-0.0625 0.003906-0.10547 0.042969-0.16797 0.050781l-7.3477 0.73828c-0.089843 0.011718-0.18359 0.015624-0.27344 0.015624h-0.09375l-7.5938-0.24609c-0.023437 0-0.039063-0.011719-0.0625-0.015625-0.125-0.003906-0.24609-0.011719-0.37109-0.035156l-7.1055-1.3477c-0.10156-0.015625-0.17187-0.085937-0.26172-0.11328s-0.18359-0.015625-0.28125-0.054688l-6.2422-2.5703c-0.11328-0.042969-0.17969-0.12891-0.28125-0.18359-0.054687-0.035156-0.125-0.015625-0.17969-0.054687l-4.8984-3.1797c-0.125-0.085937-0.19531-0.20312-0.30078-0.29688-0.089844-0.078125-0.20312-0.11719-0.28125-0.20703l-3.4258-3.9219c-0.26172-0.30078-0.44141-0.64453-0.55469-1.0078 0-0.003907-0.011719-0.011719-0.011719-0.015626l-1.3477-4.4141c-0.039062-0.13281-0.015625-0.27344-0.039062-0.41016-0.023438-0.14062-0.085938-0.26172-0.085938-0.41016v-13.961c0-0.042969 0.023438-0.078125 0.023438-0.11719 0-0.074218 0-0.13281 0.003906-0.20312 0-0.023438-0.003906-0.042969-0.003906-0.066407l0.60547-4.3672v-0.015625-0.027344c0.015626-0.11719 0.085938-0.21875 0.11719-0.33594 0.0625-0.23047 0.10547-0.46484 0.23047-0.68359l2.3281-4.043c0.085937-0.14062 0.21094-0.23047 0.3125-0.35156 0.10156-0.11719 0.16797-0.26172 0.29297-0.37109l4.2891-3.6719c0.089844-0.078125 0.19531-0.10156 0.29297-0.15625 0.10156-0.074219 0.16797-0.16406 0.27344-0.21875l5.6328-2.8164c0.074218-0.039063 0.15234-0.035157 0.22266-0.0625 0.074219-0.027344 0.125-0.089844 0.20312-0.11328l6.7383-2.082c0.09375-0.027344 0.18359-0.011719 0.27344-0.027344 0.10156-0.023437 0.17969-0.078125 0.28125-0.089843l7.4766-0.73438c0.074219 0 0.13281 0.027344 0.21094 0.027344 0.054687-0.003906 0.10156-0.035156 0.15625-0.039062l7.4688 0.24609c0.085937 0.003906 0.15234 0.042968 0.23438 0.054687 0.085937 0.011719 0.15625-0.011719 0.23438 0.003906l7.1055 1.4688c0.074219 0.015625 0.12891 0.066407 0.20313 0.089844 0.078124 0.023437 0.15625 0.011719 0.23437 0.039063l6.3711 2.4531c0.10156 0.039063 0.16406 0.11719 0.25391 0.16406 0.085938 0.042969 0.18359 0.050781 0.26172 0.10547l4.8984 3.1875c0.11719 0.078125 0.18359 0.19141 0.28516 0.28125 0.10547 0.09375 0.23438 0.15234 0.33203 0.26172l3.2656 3.8633c0 0.003906 0.003907 0.011718 0.003907 0.011718l0.035156 0.042969c0.11719 0.14062 0.17188 0.32031 0.25781 0.47656 0.085938 0.14453 0.19531 0.27344 0.25391 0.44141l0.015626 0.050781v0.011719l1.4492 4.3438c0.003906 0.027344 0 0.050781 0.003906 0.078125 0.042969 0.14062 0.042969 0.29688 0.0625 0.44922 0.015626 0.125 0.074219 0.23438 0.074219 0.35938v13.965zm0-75.344c0 0.074219-0.035156 0.125-0.039062 0.19141-0.003906 0.066406 0.015625 0.125 0.011718 0.19141l-0.60937 4.3867v0.015625 0.003906c-0.050782 0.36328-0.17188 0.69922-0.34766 1.0039-0.003906 0.011719-0.003906 0.023438-0.011719 0.035157l-2.4531 4.168c-0.042969 0.078125-0.125 0.10547-0.17969 0.17188-0.125 0.17188-0.21875 0.35938-0.38672 0.50781l-4.168 3.6719c-0.11719 0.11328-0.26953 0.15625-0.40234 0.24219-0.09375 0.0625-0.16406 0.14453-0.26172 0.19531l-5.7578 2.6875c-0.074219 0.035156-0.14453 0.023437-0.21875 0.050781-0.085938 0.027344-0.14063 0.09375-0.23047 0.11719l-6.7383 1.8359c-0.085938 0.023437-0.17188 0.023437-0.25781 0.035156-0.039063 0.003907-0.066406 0.035157-0.10547 0.039063l-7.3477 0.98438c-0.125 0.023437-0.24609 0.027343-0.36328 0.027343-0.0625 0-0.11719 0-0.17969-0.003906l-7.5938-0.49219c-0.023437 0-0.042969-0.015625-0.066406-0.015625-0.09375-0.011719-0.18359-0.011719-0.27344-0.027344l-7.1055-1.3438c-0.074219-0.011719-0.125-0.0625-0.19531-0.078125-0.089844-0.027344-0.17188-0.015625-0.26172-0.050781l-6.2422-2.3281c-0.16797-0.066407-0.29297-0.18359-0.44141-0.27344-0.054688-0.039062-0.125-0.023437-0.18359-0.0625l-4.8984-3.4258c-0.10156-0.074219-0.15625-0.17188-0.24609-0.25781-0.085938-0.078126-0.18359-0.11328-0.25781-0.19141l-3.4258-3.9219c-0.25781-0.29688-0.44141-0.62891-0.55469-0.97266v-0.003906l-1.3477-4.168c-0.042969-0.14062-0.027343-0.28516-0.050781-0.42969-0.023438-0.14453-0.089844-0.28125-0.089844-0.42969v-14.207c0-0.050781 0.023438-0.09375 0.027344-0.13281 0.003906-0.074218-0.003906-0.13281 0-0.20312 0-0.015625-0.003906-0.027343 0-0.042969l0.60547-4.3555v-0.011719l0.003906-0.039063c0.023437-0.16406 0.11328-0.29687 0.15625-0.44922 0.0625-0.18359 0.085937-0.37891 0.19141-0.56641l2.3281-4.0469c0.078125-0.13281 0.20703-0.22266 0.30078-0.34766 0.11719-0.13281 0.19531-0.29688 0.33594-0.41406l4.2891-3.5508c0.078124-0.066406 0.17187-0.085937 0.25391-0.13281 0.085937-0.0625 0.14062-0.14062 0.23438-0.19141l5.6328-2.9414c0.09375-0.050782 0.19531-0.042969 0.29297-0.085938 0.09375-0.039062 0.16797-0.11328 0.26953-0.13281l6.7383-1.8359c0.066407-0.015625 0.13281 0 0.20313-0.011719 0.074218-0.015625 0.13281-0.0625 0.21094-0.074219l7.4766-0.85547c0.066406-0.003906 0.12891 0.023437 0.20312 0.015625 0.089844 0 0.16797-0.039063 0.25781-0.027344l7.4688 0.37109c0.074219 0.003906 0.12891 0.042969 0.20312 0.050781 0.078125 0.011719 0.15234-0.011719 0.23047 0.003906l7.1055 1.4688c0.054687 0.011719 0.10156 0.054688 0.15625 0.066406 0.0625 0.015626 0.12891 0.003907 0.19141 0.027344l6.3711 2.2109c0.13281 0.050781 0.23437 0.14453 0.35156 0.20703 0.11719 0.066406 0.25391 0.089844 0.37109 0.16797l4.8984 3.5508c0.09375 0.074219 0.14453 0.16797 0.23047 0.24609 0.078125 0.074219 0.17188 0.11328 0.24219 0.18359l3.2656 3.7461c0 0.003906 0.003907 0.011719 0.011719 0.015625l0.035157 0.039063c0.10547 0.125 0.15234 0.27344 0.23437 0.41016 0.10156 0.16406 0.23047 0.30859 0.29688 0.49219l0.023437 0.0625v0.003906l1.4453 4.0938c0.011718 0.035156 0 0.074218 0.011718 0.10547 0.050782 0.15234 0.054688 0.3125 0.074219 0.46875 0.015625 0.125 0.074219 0.23438 0.074219 0.35938l-0.019532 14.203zm65.297 113.32c0 0.054687-0.035156 0.10547-0.035156 0.15625s0.023437 0.10547 0.011719 0.15625l-0.49219 4.2891c0 0.011719 0 0.015625-0.003906 0.023438-0.011719 0.11328-0.074219 0.21094-0.10156 0.32422-0.0625 0.24609-0.125 0.48828-0.24219 0.69922-0.011719 0.023438-0.011719 0.042969-0.023438 0.0625l-2.4531 4.1602c-0.027344 0.054688-0.09375 0.074219-0.125 0.11719-0.15234 0.23047-0.30859 0.46484-0.53906 0.64453l-4.2891 3.4258c-0.042968 0.039063-0.11328 0.023438-0.15234 0.054688-0.10156 0.074219-0.16797 0.16797-0.28516 0.23047l-5.75 3.0625c-0.078124 0.042969-0.16406 0.027343-0.24609 0.0625-0.11719 0.050781-0.21094 0.13281-0.33594 0.16797l-6.7383 1.8359c-0.125 0.035156-0.25391 0.035156-0.37109 0.050781-0.050781 0.003906-0.089844 0.035156-0.12891 0.039063l-7.3477 0.60938c-0.078125 0.003906-0.15625 0.011718-0.23047 0.011718h-0.089844l-7.5898-0.24219c-0.023438 0-0.039063-0.011719-0.0625-0.015625-0.125-0.003906-0.24609-0.011719-0.375-0.035156l-7.1133-1.3477c-0.10156-0.015626-0.17188-0.085938-0.26172-0.11328-0.089844-0.027344-0.18359-0.015625-0.28125-0.054687l-6.2422-2.5703c-0.11328-0.042968-0.17969-0.12891-0.28125-0.18359-0.054688-0.035156-0.125-0.015624-0.17969-0.054687l-4.8984-3.1875c-0.14062-0.09375-0.23047-0.23047-0.34766-0.33984-0.085938-0.078125-0.19141-0.11719-0.26953-0.20312l-3.3086-3.9141c-0.24609-0.29297-0.42188-0.61719-0.52734-0.96484l-0.003906-0.003906v-0.003906-0.003907l-1.3438-4.2773c-0.042969-0.13281-0.023438-0.27344-0.042969-0.41406-0.023437-0.14062-0.085937-0.27344-0.085937-0.42188v-14.09c0-0.042968 0.023437-0.078125 0.023437-0.11719 0-0.039063-0.015625-0.078125-0.011719-0.11719v-0.011719l0.36328-4.2773c0-0.035157 0.023437-0.054688 0.023437-0.089844 0.023437-0.18359 0.10156-0.35938 0.15625-0.54297s0.10156-0.35938 0.19141-0.51953c0.011719-0.027344 0.011719-0.054687 0.027344-0.085937l2.5703-4.168c0.085937-0.12891 0.20703-0.21094 0.30859-0.33203 0.09375-0.10547 0.14453-0.23438 0.25781-0.33203l4.2891-3.6719c0.089844-0.078125 0.19531-0.10156 0.29297-0.15625 0.10156-0.074219 0.16797-0.16406 0.28125-0.21875l5.6406-2.8164c0.09375-0.050781 0.20312-0.042969 0.29688-0.085937 0.09375-0.035157 0.16406-0.10156 0.26172-0.125l6.7383-1.7188c0.054687-0.015626 0.10547 0 0.16406-0.011719 0.0625-0.011719 0.10547-0.042969 0.16797-0.054688l7.4688-0.98047c0.10156-0.015624 0.19531 0.023438 0.29297 0.015626 0.054687-0.003907 0.10547-0.035157 0.16406-0.039063l7.4766 0.24609c0.10156 0.003906 0.17188 0.050781 0.26953 0.066406 0.085938 0.003906 0.16797-0.015625 0.25391 0l7.1055 1.5898c0.066406 0.015625 0.11719 0.0625 0.17188 0.078125 0.066407 0.023437 0.12891 0.011718 0.19141 0.035156l6.2422 2.3281c0.09375 0.039063 0.15625 0.11328 0.24609 0.15234 0.089843 0.039062 0.18359 0.050781 0.27344 0.10547l5.0234 3.1797c0.14453 0.09375 0.24219 0.23438 0.36328 0.34766 0.11719 0.11328 0.26172 0.18359 0.35938 0.32031l3.1797 4.168c0.09375 0.11719 0.11719 0.26172 0.19141 0.39063 0.074218 0.12891 0.16797 0.23047 0.22266 0.37109l1.4688 4.1602c0.011719 0.023437 0.003906 0.050781 0.011719 0.074218 0.054687 0.15234 0.054687 0.3125 0.078125 0.46875 0.015625 0.13281 0.078125 0.25781 0.078125 0.39062v14.242zm0-75.582c0 0.054687-0.035156 0.10547-0.035156 0.15625 0 0.050781 0.023437 0.10547 0.011719 0.15625l-0.49219 4.2891c0 0.011719 0 0.015625-0.003906 0.023438-0.011719 0.11328-0.074219 0.21094-0.10156 0.32422-0.0625 0.24609-0.125 0.48828-0.24219 0.69922-0.011719 0.023437-0.011719 0.039063-0.023438 0.0625l-2.4531 4.1602c-0.039063 0.074219-0.11719 0.10156-0.16797 0.16406-0.12891 0.18359-0.24219 0.38672-0.42188 0.54297l-4.2891 3.6719c-0.10547 0.089843-0.23047 0.12891-0.34766 0.20312-0.089844 0.054688-0.14453 0.13281-0.24219 0.18359l-5.7617 2.8242c-0.078125 0.039063-0.15234 0.027344-0.23047 0.054687-0.10156 0.039063-0.16406 0.10547-0.26172 0.12891l-6.7383 1.8359c-0.09375 0.023438-0.18359 0.023438-0.27344 0.039063-0.054687 0.003906-0.09375 0.039062-0.14062 0.042969l-7.3477 0.85156c-0.11328 0.011719-0.21094 0.015625-0.32031 0.015625h-0.089844l-7.5898-0.24219c-0.027343 0-0.050781-0.015626-0.074219-0.015626-0.15234-0.011718-0.30078-0.015624-0.45312-0.050781l-7.1133-1.5977c-0.050781-0.011719-0.089844-0.050781-0.14062-0.0625-0.0625-0.015625-0.11719-0.011719-0.17969-0.035156l-6.2422-2.207c-0.16797-0.0625-0.29297-0.17188-0.44141-0.26172-0.0625-0.039063-0.13281-0.015625-0.19531-0.0625l-4.8984-3.3086c-0.12891-0.089844-0.20703-0.21094-0.3125-0.32031-0.078125-0.078124-0.18359-0.11328-0.25781-0.19531l-3.3086-3.9141c-0.24609-0.29297-0.42188-0.61719-0.52734-0.96484l-0.003906-0.003906v-0.003907-0.003906l-1.3438-4.2773c-0.042969-0.13281-0.023438-0.27344-0.042969-0.41406-0.023437-0.14062-0.085937-0.27344-0.085937-0.42188v-14.211c0-0.042968 0.023437-0.078125 0.023437-0.11719 0-0.039063-0.015625-0.074219-0.011719-0.11328v-0.035157-0.015625l0.36328-4.3555c0-0.042969 0.027343-0.085938 0.039062-0.12891 0.023438-0.17188 0.089844-0.34766 0.14453-0.51953 0.0625-0.19141 0.11719-0.375 0.21875-0.54297 0.015625-0.039062 0.023438-0.078125 0.042969-0.11719l2.5703-3.9219c0.078126-0.11719 0.19141-0.17969 0.28125-0.28125 0.089844-0.10547 0.13281-0.22266 0.24219-0.3125l4.2891-3.6719c0.085938-0.074219 0.18359-0.09375 0.26953-0.14453 0.09375-0.066406 0.15234-0.15234 0.25391-0.20703l5.6406-2.9414c0.09375-0.050781 0.19531-0.042969 0.29297-0.085937 0.09375-0.039063 0.16797-0.11328 0.26953-0.13281l6.7383-1.8359c0.074219-0.023438 0.14453 0 0.22266-0.011719 0.085938-0.015625 0.15234-0.066407 0.24219-0.078125l7.4688-0.73438c0.074219-0.003907 0.13281 0.027343 0.21094 0.027343 0.054687-0.003906 0.10156-0.035156 0.15625-0.039062l7.4766 0.24609c0.078125 0 0.14062 0.042968 0.21875 0.054687 0.074219 0.003907 0.13281-0.015625 0.20703-0.003906l7.1133 1.3438c0.10156 0.015625 0.17188 0.085937 0.26172 0.11328 0.10156 0.027344 0.18359 0.015625 0.28125 0.054688l6.2422 2.5742c0.074219 0.035157 0.11719 0.09375 0.19141 0.125 0.078125 0.039063 0.16406 0.042969 0.24219 0.09375l5.0234 3.1797c0.13281 0.089844 0.21875 0.21875 0.33594 0.32422 0.11719 0.10156 0.24609 0.15625 0.33984 0.28125l3.1797 3.9219c0.11328 0.12891 0.15234 0.29297 0.23047 0.42969 0.085937 0.14453 0.19141 0.26172 0.25391 0.42578l1.4688 4.2891c0.011718 0.023437 0.003906 0.039063 0.011718 0.0625 0.042969 0.14062 0.042969 0.30078 0.066407 0.45312 0.015625 0.13281 0.078125 0.25781 0.078125 0.39062l-0.003906 14.102zm0-75.336c0 0.054688-0.027343 0.10156-0.035156 0.15234 0 0.054687 0.023437 0.10547 0.015625 0.15625l-0.49219 4.4062c-0.003906 0.015625-0.011718 0.027344-0.015624 0.050781-0.011719 0.11719-0.078126 0.23438-0.11328 0.35156-0.0625 0.23047-0.11719 0.46094-0.24219 0.66016-0.011719 0.023437-0.011719 0.050781-0.023438 0.074218l-2.4531 4.043c-0.035156 0.0625-0.10547 0.085938-0.14062 0.13281-0.14453 0.21094-0.29297 0.42969-0.50391 0.59766l-4.2891 3.4336c-0.042968 0.039062-0.11328 0.023437-0.15234 0.054687-0.10156 0.074219-0.16797 0.16797-0.28516 0.23047l-5.75 3.0625c-0.078124 0.042969-0.16406 0.027344-0.24609 0.0625-0.11719 0.050781-0.21094 0.13281-0.33594 0.16797l-6.7383 1.8359c-0.09375 0.023438-0.18359 0.023438-0.27344 0.039063-0.054687 0.003906-0.09375 0.039062-0.14062 0.042969l-7.3477 0.85156c-0.11328 0.011719-0.21094 0.015625-0.32031 0.015625-0.0625 0-0.11719 0-0.17969-0.003906l-7.5898-0.48828c-0.023438 0-0.042969-0.015626-0.066407-0.015626-0.09375-0.011718-0.18359-0.011718-0.27344-0.027343l-7.1133-1.3477c-0.085937-0.015624-0.14062-0.066406-0.21875-0.089843-0.09375-0.027344-0.19141-0.015625-0.28125-0.054688l-6.2422-2.4531c-0.13281-0.054687-0.23047-0.15234-0.34766-0.22266-0.0625-0.039062-0.13281-0.023438-0.19531-0.0625l-4.8984-3.3047c-0.12891-0.089843-0.20703-0.21875-0.32031-0.32422-0.085937-0.078125-0.18359-0.11328-0.25781-0.19531l-3.3086-3.9219c-0.24609-0.29688-0.42188-0.62109-0.53125-0.96875v-0.011718l-1.3438-4.2773c-0.042969-0.13281-0.023438-0.27344-0.042969-0.41406-0.023437-0.14062-0.085937-0.27344-0.085937-0.42188v-14.09c0-0.042968 0.023437-0.078124 0.023437-0.11719s-0.015625-0.078125-0.011719-0.11719v-0.011719l0.36328-4.2773c0-0.035156 0.023437-0.054687 0.023437-0.089844 0.023438-0.18359 0.10156-0.35938 0.15625-0.54297 0.054688-0.18359 0.10156-0.35937 0.19141-0.51953 0.011718-0.027343 0.011718-0.054687 0.027343-0.085937l2.5703-4.168c0.085937-0.12891 0.20703-0.21094 0.30859-0.33203 0.09375-0.10547 0.14453-0.23438 0.25781-0.33203l4.2891-3.6719c0.09375-0.078126 0.20703-0.10547 0.30859-0.16797 0.11328-0.074219 0.18359-0.17188 0.30859-0.23047l5.6406-2.6953c0.085937-0.039063 0.16797-0.035157 0.24609-0.0625 0.078125-0.035157 0.14062-0.09375 0.22266-0.11719l6.7383-1.8359c0.0625-0.015624 0.11719 0 0.17969-0.011718 0.066406-0.015625 0.125-0.054688 0.19141-0.066406l7.4688-0.98047c0.10156-0.011719 0.19141 0.023437 0.29297 0.023437 0.054687-0.011718 0.11328-0.039062 0.16797-0.042968l7.4766 0.24609c0.10156 0.003907 0.17188 0.050781 0.26953 0.066407 0.085938 0.003906 0.16797-0.015626 0.25391 0l7.1055 1.5898c0.066406 0.015625 0.11719 0.0625 0.17969 0.085938 0.0625 0.015625 0.125 0.003906 0.18359 0.027343l6.2422 2.3281c0.11719 0.042968 0.19141 0.12891 0.30078 0.18359 0.10156 0.050781 0.20703 0.0625 0.29688 0.125l5.0273 3.4258c0.11328 0.078126 0.17188 0.19531 0.28125 0.29297 0.10547 0.09375 0.22266 0.14453 0.3125 0.25781l3.1797 3.9219c0.11328 0.12891 0.14453 0.28516 0.22266 0.42188 0.085937 0.14062 0.19141 0.25391 0.24609 0.41016l1.4688 4.1602c0.011719 0.023438 0.003907 0.050782 0.011719 0.074219 0.054688 0.14453 0.054688 0.3125 0.078125 0.47656 0.015625 0.12891 0.078125 0.25391 0.078125 0.38672l0.003907 14.246zm65.406 112.95c0 0.074219-0.035156 0.125-0.039062 0.19141-0.003907 0.066406 0.023437 0.125 0.011719 0.19141l-0.60938 4.3867v0.015625 0.003906c-0.050781 0.36328-0.17187 0.69922-0.34766 1.0039 0 0.011719 0 0.023438-0.011718 0.035157l-2.4531 4.168c-0.039062 0.074219-0.11719 0.10156-0.16406 0.16406-0.125 0.17188-0.22266 0.37109-0.39062 0.51953l-4.1602 3.6719c-0.125 0.11328-0.27344 0.16406-0.41016 0.24609-0.09375 0.054687-0.15625 0.14062-0.26172 0.19141l-5.75 2.6875c-0.0625 0.027344-0.11719 0.015625-0.17969 0.039063-0.074218 0.027343-0.11719 0.085937-0.19141 0.10547l-6.8594 2.082c-0.12891 0.039062-0.25391 0.039062-0.37891 0.054687-0.054688 0.011719-0.10156 0.042969-0.15234 0.050781l-7.3477 0.73828c-0.089844 0.011718-0.18359 0.015624-0.27344 0.015624h-0.10156l-7.5898-0.24609c-0.023437 0-0.042969-0.011719-0.066406-0.015625-0.11719-0.003906-0.24609-0.011719-0.37109-0.035156l-7.1016-1.3477c-0.10547-0.023437-0.17969-0.085937-0.27344-0.11328-0.10156-0.035156-0.19531-0.023438-0.29297-0.0625l-6.125-2.5703c-0.09375-0.039063-0.15234-0.11719-0.24219-0.16406-0.054688-0.027344-0.11719-0.015625-0.17188-0.050781l-5.0234-3.1797c-0.15234-0.10156-0.25391-0.24219-0.375-0.35938-0.085937-0.078125-0.19141-0.11719-0.26953-0.20312l-3.3047-3.9219c-0.25391-0.29688-0.42578-0.63281-0.53906-0.98438l-0.003906-0.003906-1.3438-4.4141c-0.042969-0.13281-0.015625-0.28125-0.039063-0.41406-0.023437-0.13281-0.085937-0.25781-0.085937-0.39844v-13.961c0-0.042969 0.023437-0.078125 0.027343-0.11719 0-0.054687-0.011718-0.10547-0.011718-0.15625 0.003906-0.011718 0-0.023437 0-0.035156l0.49219-4.4141c0-0.015625 0.011719-0.027344 0.011719-0.042969 0.035156-0.21875 0.12891-0.41406 0.20703-0.62891 0.054688-0.12891 0.078125-0.28516 0.14453-0.40234 0.011719-0.023437 0.011719-0.042969 0.023438-0.0625l2.4531-4.043c0.078125-0.125 0.19531-0.20312 0.29297-0.3125 0.10156-0.11719 0.16406-0.26172 0.28516-0.36328l4.2891-3.6719c0.089844-0.078125 0.19531-0.10156 0.29688-0.15625 0.10156-0.074219 0.16406-0.16406 0.27344-0.21875l5.6328-2.8164c0.074218-0.039063 0.15234-0.035156 0.22266-0.0625 0.074218-0.027344 0.125-0.089844 0.20312-0.11328l6.7383-2.082c0.089844-0.027343 0.17969-0.011719 0.27344-0.027343 0.10156-0.023438 0.17187-0.078126 0.28125-0.089844l7.4688-0.73438c0.074218 0 0.13281 0.027343 0.21094 0.035156 0.054687-0.011719 0.10156-0.039063 0.15234-0.042969l7.4766 0.24609c0.085938 0.003906 0.15234 0.042969 0.23438 0.054688 0.085938 0.011718 0.15234-0.011719 0.24219 0.003906l7.1016 1.4688c0.078125 0.015625 0.12891 0.066406 0.20703 0.089844 0.078124 0.023437 0.15234 0.011718 0.23437 0.039062l6.3711 2.4531c0.10156 0.039063 0.16406 0.11719 0.26172 0.16406 0.09375 0.050781 0.19531 0.0625 0.28516 0.11719l4.7812 3.1875c0.11719 0.078125 0.18359 0.19531 0.28516 0.29297 0.10156 0.085937 0.21094 0.13281 0.29687 0.23438l3.3164 3.9219c0.11328 0.13281 0.15234 0.29688 0.24219 0.44141 0.078125 0.14062 0.19141 0.25391 0.25391 0.41016l1.5859 4.4062c0.015625 0.039063 0.011719 0.078125 0.023438 0.11719 0.042968 0.15234 0.054687 0.3125 0.078124 0.47656 0.015626 0.125 0.074219 0.23438 0.074219 0.35938l0.003907 13.957zm0-75.344c0 0.074219-0.035156 0.125-0.039062 0.19141-0.003907 0.066406 0.023437 0.125 0.011719 0.19141l-0.60938 4.3867v0.015625 0.003906c-0.050781 0.36328-0.17187 0.69922-0.34766 1.0039 0 0.011719 0 0.023438-0.011718 0.035157l-2.4531 4.168c-0.039062 0.074219-0.11719 0.10156-0.16406 0.16406-0.125 0.17188-0.22266 0.37109-0.39062 0.51953l-4.1602 3.6719c-0.125 0.11328-0.27344 0.16406-0.41016 0.24609-0.09375 0.054687-0.15625 0.14062-0.26172 0.19141l-5.75 2.6875c-0.074219 0.035156-0.14453 0.023437-0.21875 0.050781-0.089844 0.035156-0.15234 0.10156-0.24219 0.11719l-6.8594 1.8359c-0.089843 0.023438-0.17188 0.015625-0.26172 0.035157-0.035156 0.003906-0.054687 0.027343-0.09375 0.035156l-7.3555 0.98438c-0.125 0.023437-0.24609 0.027343-0.36328 0.027343h-0.003906-0.003906c-0.054688 0-0.11719 0-0.17188-0.003906l-7.5938-0.49219c-0.027344 0-0.042969-0.015625-0.066406-0.015625-0.09375-0.011719-0.17969-0.011719-0.28125-0.027344l-7.1016-1.3438c-0.078125-0.015625-0.12891-0.0625-0.20312-0.085938-0.09375-0.023437-0.17969-0.015624-0.27344-0.050781l-6.125-2.3281c-0.14453-0.054687-0.25781-0.16797-0.38672-0.24609-0.066406-0.039062-0.13281-0.023437-0.19531-0.0625l-5.0195-3.4258c-0.12891-0.089843-0.20312-0.21094-0.30859-0.3125-0.085938-0.078125-0.18359-0.11328-0.26172-0.19531l-3.3047-3.9219c-0.24219-0.28125-0.39844-0.59375-0.50781-0.92578-0.003907-0.011718-0.015625-0.011718-0.015625-0.023437l-0.003906-0.015625c-0.003907-0.011719-0.003907-0.015625-0.003907-0.023438l-1.332-4.1289c-0.042969-0.13281-0.023438-0.28125-0.042969-0.41406-0.027343-0.15234-0.09375-0.28516-0.09375-0.44141v-14.207c0-0.050781 0.027344-0.09375 0.027344-0.14453 0.003906-0.050781-0.015625-0.10156-0.011719-0.14453v-0.015625l0.49219-4.4062c0-0.015625 0.011718-0.027344 0.011718-0.042969 0.023438-0.16797 0.11328-0.32422 0.15625-0.48828 0.0625-0.19531 0.10547-0.39844 0.20313-0.57812 0.011718-0.011719 0.011718-0.023438 0.015624-0.035156l2.4531-4.0469c0.085937-0.13281 0.21094-0.21875 0.3125-0.33984 0.10547-0.11719 0.17187-0.26172 0.29687-0.36328l4.2891-3.5508c0.078125-0.066406 0.17188-0.085937 0.25781-0.13281 0.085937-0.0625 0.14062-0.14062 0.23437-0.19141l5.6328-2.9414c0.09375-0.050781 0.19531-0.042969 0.29297-0.085937 0.09375-0.039063 0.16797-0.11328 0.26953-0.13281l6.7383-1.8359c0.074219-0.015625 0.13281 0 0.20703-0.011719 0.074218-0.015625 0.12891-0.0625 0.20703-0.074219l7.4688-0.85547c0.074219-0.003907 0.12891 0.023437 0.20312 0.015624 0.09375 0 0.16797-0.039062 0.25781-0.027343l7.4805 0.37109c0.066406 0.003907 0.12891 0.042969 0.19531 0.050782 0.078124 0.011718 0.15234-0.011719 0.23047 0.003906l7.1016 1.4688c0.0625 0.011719 0.10547 0.054688 0.16406 0.066406 0.0625 0.015625 0.125 0.003906 0.18359 0.027344l6.3789 2.2109c0.14062 0.050781 0.25391 0.15234 0.37891 0.22266 0.11719 0.066406 0.25391 0.09375 0.37109 0.17188l4.7695 3.5508c0.089844 0.066406 0.12891 0.15625 0.20703 0.23047s0.16797 0.10547 0.23438 0.17969l3.3086 3.8008c0.11328 0.125 0.15234 0.28125 0.24219 0.41406 0.085938 0.14062 0.19531 0.25781 0.26172 0.42188l1.5508 4.0703c0 0.003906 0.003906 0.003906 0.003906 0.003906l0.035156 0.089844c0.015626 0.042968 0.003907 0.09375 0.023438 0.13281 0.054688 0.16406 0.074219 0.33203 0.09375 0.50391 0.015625 0.125 0.074219 0.23438 0.074219 0.35938l-0.011719 14.207zm65.297 37.734c0 0.066406-0.035156 0.125-0.039062 0.19141-0.003906 0.074218 0.023437 0.12891 0.011718 0.20312l-0.60937 4.2891c-0.054688 0.36328-0.17188 0.69922-0.34766 1.0039-0.003906 0.003906-0.003906 0.015624-0.011719 0.027343l-2.4531 4.1602c-0.042969 0.078124-0.12891 0.10547-0.17969 0.17187-0.11719 0.17188-0.21094 0.35938-0.375 0.50391l-4.168 3.6719c-0.11328 0.09375-0.24219 0.13281-0.35938 0.21094-0.089844 0.0625-0.15234 0.15234-0.26172 0.20312l-5.75 2.8242c-0.078126 0.039063-0.16406 0.027344-0.24219 0.054687-0.089844 0.039063-0.16406 0.10547-0.26172 0.12891l-6.7383 1.8359c-0.089844 0.023438-0.17969 0.023438-0.27344 0.039063-0.042968 0.003906-0.089843 0.039062-0.13281 0.042969l-7.3477 0.85156c-0.10547 0.011719-0.21094 0.015625-0.32031 0.015625h-0.003906-0.089844l-7.5938-0.24219c-0.027343 0-0.050781-0.015626-0.074219-0.015626-0.15234-0.011718-0.30859-0.015624-0.46094-0.050781l-7.1016-1.5977c-0.054687-0.011719-0.09375-0.050781-0.14062-0.0625-0.0625-0.023437-0.11719-0.011719-0.17188-0.035156l-6.2422-2.207c-0.16797-0.0625-0.29688-0.17188-0.44141-0.26172-0.0625-0.039063-0.13281-0.015625-0.19141-0.0625l-4.8984-3.3086c-0.12891-0.089844-0.20703-0.21094-0.32031-0.32031-0.078124-0.078124-0.18359-0.11328-0.25781-0.19531l-3.3086-3.9141c-0.20703-0.24609-0.33594-0.52734-0.44141-0.80469-0.015625-0.039062-0.054688-0.054688-0.074219-0.09375l-1.4688-4.2891c-0.054687-0.15234-0.039062-0.30859-0.066406-0.46484-0.023437-0.14453-0.089844-0.28516-0.089844-0.44141v-14.211c0-0.035156 0.015625-0.0625 0.023438-0.09375 0-0.054688-0.003907-0.10547 0-0.15625 0-0.023438-0.011719-0.039062-0.003907-0.0625l0.49219-4.4062c0.003906-0.035156 0.027344-0.0625 0.027344-0.09375 0.035156-0.18359 0.11328-0.35156 0.17188-0.53906 0.066406-0.16406 0.11328-0.33984 0.19531-0.49219 0.023438-0.035156 0.023438-0.074219 0.042969-0.10547l2.5703-3.9219c0.078126-0.11328 0.18359-0.17188 0.26953-0.27344 0.085937-0.09375 0.125-0.20703 0.22266-0.29297l4.168-3.6719c0.085937-0.078125 0.18359-0.10156 0.28516-0.16406 0.09375-0.066406 0.16406-0.16406 0.26953-0.21875l5.6328-2.9414c0.09375-0.050781 0.19141-0.042968 0.29297-0.085937 0.10156-0.039063 0.17187-0.11719 0.28516-0.14062l6.8594-1.8359c0.078125-0.015625 0.14453 0 0.21875-0.011718 0.089843-0.015626 0.15234-0.0625 0.23438-0.074219l7.4688-0.73438c0.074218-0.003906 0.13281 0.027344 0.21094 0.027344 0.054688-0.003907 0.10156-0.035157 0.15234-0.039063l7.4688 0.24609c0.078125 0 0.14062 0.042969 0.21875 0.054687 0.074219 0.003906 0.13281-0.015625 0.20703-0.003906l7.1133 1.3438c0.10156 0.023438 0.17187 0.085938 0.27344 0.11328 0.10156 0.035157 0.19531 0.023438 0.29688 0.0625l6.125 2.5742c0.078125 0.035156 0.125 0.10156 0.19531 0.13281 0.074219 0.035157 0.14453 0.039063 0.21094 0.085938l5.0195 3.1797c0.11719 0.078124 0.19141 0.19141 0.29688 0.28516 0.11719 0.09375 0.24609 0.15625 0.34766 0.27344l3.3164 3.9219c0.11328 0.13281 0.15625 0.30078 0.24219 0.44922 0.089844 0.15234 0.20703 0.28125 0.26172 0.44922l1.4766 4.2891c0.011718 0.035156 0 0.0625 0.011718 0.09375 0.042969 0.14453 0.042969 0.30078 0.066406 0.45312 0.015626 0.125 0.074219 0.23438 0.074219 0.35938l0.007813 14.113z"/>
 
 </g>
</svg>
